<svg xmlns="http://www.w3.org/2000/svg" version="1.1" xmlns:xlink="http://www.w3.org/1999/xlink" width="512" height="512" x="0" y="0" viewBox="0 0 512 512" style="enable-background:new 0 0 512 512" xml:space="preserve" class=""><g><path d="M108.242 338.019H71.494c-5.522 0-10 4.478-10 10v36.748c0 5.522 4.478 10 10 10h36.748c5.522 0 10-4.478 10-10v-36.748c0-5.523-4.477-10-10-10zm-10 36.748H81.494v-16.748h16.748v16.748zM189.7 338.019h-36.748c-5.522 0-10 4.478-10 10v36.748c0 5.522 4.478 10 10 10H189.7c5.522 0 10-4.478 10-10v-36.748c0-5.523-4.477-10-10-10zm-10 36.748h-16.748v-16.748H179.7v16.748zM108.242 415.19H71.494c-5.522 0-10 4.478-10 10v36.748c0 5.522 4.478 10 10 10h36.748c5.522 0 10-4.478 10-10V425.19c0-5.523-4.477-10-10-10zm-10 36.748H81.494V435.19h16.748v16.748zM189.7 415.19h-36.748c-5.522 0-10 4.478-10 10v36.748c0 5.522 4.478 10 10 10H189.7c5.522 0 10-4.478 10-10V425.19c0-5.523-4.477-10-10-10zm-10 36.748h-16.748V435.19H179.7v16.748zM152 258.43a10.093 10.093 0 0 0-7.07-2.93c-2.64 0-5.21 1.069-7.07 2.93-1.869 1.86-2.93 4.44-2.93 7.07s1.061 5.21 2.93 7.069c1.86 1.86 4.44 2.931 7.07 2.931s5.2-1.07 7.07-2.931c1.859-1.859 2.93-4.439 2.93-7.069s-1.07-5.21-2.93-7.07z" fill="#ffffff" opacity="1" data-original="#000000"></path><path d="M502 492h-10V237.938c0-5.522-4.478-10-10-10h-47.873V99.114c0-3.701-2.044-7.1-5.314-8.834l-168-89.114A10 10 0 0 0 246.127 10v102h-101.2c-5.522 0-10 4.478-10 10v103.722c0 5.522 4.478 10 10 10s10-4.478 10-10V132h136v39.938h-34.8c-5.522 0-10 4.478-10 10s4.478 10 10 10h34.8v36h-34.8c-5.522 0-10 4.478-10 10s4.478 10 10 10h34.8v36h-34.8c-5.522 0-10 4.478-10 10s4.478 10 10 10h34.8v36h-34.8c-5.522 0-10 4.478-10 10s4.478 10 10 10h34.8v36h-34.8c-5.522 0-10 4.478-10 10s4.478 10 10 10h34.8v36h-34.8c-5.522 0-10 4.478-10 10s4.478 10 10 10h34.8V492H240V308c0-5.522-4.478-10-10-10H30c-5.522 0-10 4.478-10 10v184H10c-5.522 0-10 4.478-10 10s4.478 10 10 10h492c5.522 0 10-4.478 10-10s-4.477-10-10-10zm-282 0H40V318h180v174zm124-254.062V492h-33.073V122c0-5.522-4.478-10-10-10h-34.8V26.624l148 78.506v122.808H354c-5.522 0-10 4.478-10 10zm128 46h-54c-5.522 0-10 4.478-10 10s4.478 10 10 10h54v36h-54c-5.522 0-10 4.478-10 10s4.478 10 10 10h54v36h-54c-5.522 0-10 4.478-10 10s4.478 10 10 10h54v36h-30.333c-5.522 0-10 4.478-10 10s4.478 10 10 10H472V492H364V247.938h108v36z" fill="#ffffff" opacity="1" data-original="#000000"></path><path d="M403.399 454.871a10.05 10.05 0 0 0-7.069-2.931c-2.63 0-5.21 1.07-7.07 2.931-1.86 1.859-2.93 4.439-2.93 7.069s1.069 5.21 2.93 7.07a10.077 10.077 0 0 0 7.07 2.93c2.64 0 5.21-1.069 7.069-2.93a10.034 10.034 0 0 0 2.931-7.07c0-2.64-1.061-5.21-2.931-7.069zM344 113c-5.522 0-10 4.478-10 10v18.667c0 5.523 4.478 10 10 10s10-4.478 10-10V123c0-5.522-4.478-10-10-10zM344 171.937c-5.522 0-10 4.478-10 10v20.592c0 5.523 4.478 10 10 10s10-4.478 10-10v-20.592c0-5.522-4.478-10-10-10zM384 113c-5.522 0-10 4.478-10 10v18.667c0 5.523 4.478 10 10 10s10-4.478 10-10V123c0-5.522-4.478-10-10-10zM384 171.937c-5.522 0-10 4.478-10 10v20.592c0 5.523 4.478 10 10 10s10-4.478 10-10v-20.592c0-5.522-4.478-10-10-10z" fill="#ffffff" opacity="1" data-original="#000000"></path></g></svg>