<svg xmlns="http://www.w3.org/2000/svg" version="1.1" xmlns:xlink="http://www.w3.org/1999/xlink" width="512" height="512" x="0" y="0" viewBox="0 0 64 64" style="enable-background:new 0 0 512 512" xml:space="preserve" class=""><g><path d="M53.036 36.006c-.148-4.447.082-8.99-.2-13.418-.283-4.442-.346-9.397-.637-13.928-.214-3.328-.624-4.655-5.82-4.738-6.18-.09-12.637-.064-18.747 0-3.06.044-6.235.207-9.27.29-7.55.207-7.455 2.343-7.565 6.651-.109 12.624.79 29.613 1.04 41.252.096 4.52.497 6.846 5.098 7.507a78.723 78.723 0 0 0 10.919.499c4.35.048 13.95.012 18.345-.499 4.658-.541 6.515-.236 6.851-5.79.33-7.948.064-10.648-.014-17.826zm-11.11 18.339c-3.376.105-14.158.495-17.536.475-7.616.284-7.389-.625-7.389-5.684 0-2.58-.282-10.354-.4-12.93-.206-7.834-1.025-15.345-.936-23.232-.085-4.178 1.151-3.368 5.846-3.766 3.2-.271 6.435-.305 9.646-.305 3.466-.109 6.871-.012 10.327-.16 3.155-.21 5.686-.327 5.659 3.636.34 5.677.843 11.3.843 17.01-.036 6.988.76 13.857.763 20.857-.089 3.664-.815 3.911-6.822 4.099zM23.234 18.967c3.402.14 11.965-.294 15.415-.355 2.885-.052 3.883-.802 3.963-1.888.235-3.184-.346-4.015-2.84-4.015-4.845 0-7.68.014-12.52.07-2 .066-4.993.141-6.809.928-1.36.59-1.652 2.786-.9 4.015.609.998 1.91 1.17 3.691 1.245zm10.676 25.957a14.05 14.05 0 0 0-4.685-.45c-1.633-.004-3.794.159-5.457.159-2.477 0-3.79 1.445-2.897 4.111.547 1.415 1.749 1.47 3.097 1.556 1.741 0 3.482.05 5.22-.032a20.08 20.08 0 0 0 4.722-.522 2.58 2.58 0 0 0 0-4.822zM20.12 30.197c-.177 3.81 5.402 4.619 6.97 1.352a3.852 3.852 0 0 0-2.239-5.172c-2.311-.798-4.71 1.587-4.731 3.82zm10.078-2.915c-1.5 1.842-.127 4.83 1.904 5.595 3.418 1.435 6.021-3.387 3.564-5.909a3.744 3.744 0 0 0-5.468.314zm-4.942 9.027c-2.852-1.707-6.934 1.812-5.03 4.792 2.781 4.192 9.707-1.813 5.03-4.792zm5.648.035c-2.123 1.48-2.024 6.32 1.379 6.008 2.329-.098 4.42-2.29 3.587-4.63-.678-1.968-3.409-2.494-4.966-1.378zm10.68-.764c-4.016.348-4.538 6.82.259 6.262 2.262-.074 3.936-3.026 2.64-4.938a3.635 3.635 0 0 0-2.898-1.324zm-1.198 8.82c-1.727.617-3.025 3.19-1.77 4.616 1.862 2.285 6.76.625 6.279-2.633-.349-1.98-2.829-2.773-4.509-1.983zm-1.872-15.463a2.718 2.718 0 0 0 2.288 3.069c2.174.18 4.398-.946 4.079-3.497a2.893 2.893 0 0 0-1.97-2.285 3.188 3.188 0 0 0-4.397 2.713z" fill="#f8931f" opacity="1" data-original="#000000" class=""></path></g></svg>