<svg xmlns="http://www.w3.org/2000/svg" version="1.1" xmlns:xlink="http://www.w3.org/1999/xlink" width="512" height="512" x="0" y="0" viewBox="0 0 32 32" style="enable-background:new 0 0 512 512" xml:space="preserve" class=""><g><path d="M15 14.68a.75.75 0 0 1-.427-.134c-1.27-.877-2.028-2.328-2.028-3.879s.758-3 2.028-3.88a.75.75 0 0 1 .854 0 4.718 4.718 0 0 1 2.028 3.88c0 1.55-.758 3-2.028 3.88a.747.747 0 0 1-.427.133zm0-6.305a3.222 3.222 0 0 0-.955 2.292c0 .87.35 1.694.955 2.292a3.222 3.222 0 0 0 .955-2.292c0-.87-.35-1.693-.955-2.292z" fill="#b3da07" opacity="1" data-original="#000000" class=""></path><path d="M16.314 18.954a4.697 4.697 0 0 1-1.563-.267.751.751 0 0 1-.501-.692 4.722 4.722 0 0 1 6.287-4.546c.295.103.494.38.501.692a4.728 4.728 0 0 1-4.725 4.813zm-.527-1.543a3.224 3.224 0 0 0 3.714-2.687 3.229 3.229 0 0 0-3.714 2.686zm2.856.039h.01z" fill="#b3da07" opacity="1" data-original="#000000" class=""></path><path d="M13.687 18.954c-.981 0-1.953-.306-2.77-.896a4.719 4.719 0 0 1-1.955-3.917.751.751 0 0 1 .5-.693 4.723 4.723 0 0 1 6.287 4.546.751.751 0 0 1-.5.693 4.697 4.697 0 0 1-1.562.267zm-1.891-2.112a3.22 3.22 0 0 0 2.417.569 3.227 3.227 0 0 0-3.714-2.686c.13.84.593 1.607 1.297 2.117zM16.314 23.954a4.697 4.697 0 0 1-1.563-.267.751.751 0 0 1-.501-.692 4.721 4.721 0 0 1 1.955-3.917 4.72 4.72 0 0 1 4.332-.63c.295.104.494.38.501.693a4.728 4.728 0 0 1-4.725 4.813zm-.527-1.543a3.222 3.222 0 0 0 3.714-2.687 3.224 3.224 0 0 0-3.714 2.686zm2.856.039h.01z" fill="#b3da07" opacity="1" data-original="#000000" class=""></path><path d="M13.687 23.954c-.981 0-1.953-.306-2.77-.896a4.719 4.719 0 0 1-1.955-3.917.751.751 0 0 1 .5-.693 4.723 4.723 0 0 1 6.287 4.546.751.751 0 0 1-.5.693 4.697 4.697 0 0 1-1.562.267zm-1.891-2.112c.705.51 1.577.71 2.417.569a3.227 3.227 0 0 0-3.714-2.686c.13.84.593 1.607 1.297 2.117z" fill="#b3da07" opacity="1" data-original="#000000" class=""></path><path d="M15 27.75a.75.75 0 0 1-.75-.75V13.671a.75.75 0 0 1 1.5 0V27a.75.75 0 0 1-.75.75z" fill="#b3da07" opacity="1" data-original="#000000" class=""></path><path d="M15 30.75C7.418 30.75 1.25 24.582 1.25 17S7.418 3.25 15 3.25c1.706 0 3.358.307 4.911.911a.75.75 0 1 1-.543 1.398A12.001 12.001 0 0 0 15 4.75C8.245 4.75 2.75 10.245 2.75 17S8.245 29.25 15 29.25 27.25 23.755 27.25 17a.75.75 0 0 1 1.5 0c0 7.582-6.168 13.75-13.75 13.75z" fill="#b3da07" opacity="1" data-original="#000000" class=""></path><path d="M27.5 14.75h-4a.75.75 0 0 1-.75-.75V8.75H21a.75.75 0 0 1-.592-1.21l4.5-5.79c.283-.366.9-.366 1.184 0l4.5 5.79A.75.75 0 0 1 30 8.75h-1.75V14a.75.75 0 0 1-.75.75zm-3.25-1.5h2.5V8a.75.75 0 0 1 .75-.75h.967L25.5 3.432 22.533 7.25h.967a.75.75 0 0 1 .75.75z" fill="#b3da07" opacity="1" data-original="#000000" class=""></path></g></svg>