<svg xmlns="http://www.w3.org/2000/svg" version="1.1" xmlns:xlink="http://www.w3.org/1999/xlink" width="512" height="512" x="0" y="0" viewBox="0 0 682.667 682.667" style="enable-background:new 0 0 512 512" xml:space="preserve" class=""><g><defs><clipPath id="a" clipPathUnits="userSpaceOnUse"><path d="M0 512h512V0H0Z" fill="#017ffe" opacity="1" data-original="#000000"></path></clipPath></defs><g clip-path="url(#a)" transform="matrix(1.33333 0 0 -1.33333 0 682.667)"><path d="M0 0c0-132.548-108.452-241-241-241S-482-132.548-482 0s108.452 241 241 241S0 132.548 0 0Z" style="stroke-width:30;stroke-linecap:round;stroke-linejoin:round;stroke-miterlimit:10;stroke-dasharray:none;stroke-opacity:1" transform="translate(497 256)" fill="none" stroke="#017ffe" stroke-width="30" stroke-linecap="round" stroke-linejoin="round" stroke-miterlimit="10" stroke-dasharray="none" stroke-opacity="" data-original="#000000" opacity="1" class=""></path><path d="M0 0c5.858 5.858 15.355 5.858 21.213 0 5.858-5.858 5.858-15.355 0-21.213-5.858-5.858-15.355-5.858-21.213 0C-5.858-15.355-5.858-5.858 0 0" style="fill-opacity:1;fill-rule:nonzero;stroke:none" transform="translate(118.114 139.327)" fill="#017ffe" data-original="#000000" opacity="1"></path><path d="M0 0c5.857 5.858 15.355 5.858 21.213 0 5.858-5.858 5.858-15.355 0-21.213-5.858-5.858-15.356-5.858-21.213 0C-5.858-15.355-5.858-5.858 0 0" style="fill-opacity:1;fill-rule:nonzero;stroke:none" transform="translate(372.673 393.886)" fill="#017ffe" data-original="#000000" opacity="1"></path><path d="M0 0c5.858-5.858 5.858-15.355 0-21.213-5.857-5.858-15.355-5.858-21.213 0-5.858 5.858-5.858 15.355 0 21.213C-15.355 5.858-5.857 5.858 0 0" style="fill-opacity:1;fill-rule:nonzero;stroke:none" transform="translate(139.327 393.886)" fill="#017ffe" data-original="#000000" opacity="1"></path><path d="M0 0c5.858-5.858 5.858-15.355 0-21.213-5.858-5.858-15.355-5.858-21.213 0-5.858 5.858-5.858 15.355 0 21.213C-15.355 5.858-5.858 5.858 0 0" style="fill-opacity:1;fill-rule:nonzero;stroke:none" transform="translate(393.886 139.327)" fill="#017ffe" data-original="#000000" opacity="1"></path><path d="M0 0v-30" style="stroke-width:30;stroke-linecap:round;stroke-linejoin:round;stroke-miterlimit:10;stroke-dasharray:none;stroke-opacity:1" transform="translate(256 436)" fill="none" stroke="#017ffe" stroke-width="30" stroke-linecap="round" stroke-linejoin="round" stroke-miterlimit="10" stroke-dasharray="none" stroke-opacity="" data-original="#000000" opacity="1" class=""></path><path d="M0 0v-30" style="stroke-width:30;stroke-linecap:round;stroke-linejoin:round;stroke-miterlimit:10;stroke-dasharray:none;stroke-opacity:1" transform="translate(256 106)" fill="none" stroke="#017ffe" stroke-width="30" stroke-linecap="round" stroke-linejoin="round" stroke-miterlimit="10" stroke-dasharray="none" stroke-opacity="" data-original="#000000" opacity="1" class=""></path><path d="M0 0h30" style="stroke-width:30;stroke-linecap:round;stroke-linejoin:round;stroke-miterlimit:10;stroke-dasharray:none;stroke-opacity:1" transform="translate(76 256)" fill="none" stroke="#017ffe" stroke-width="30" stroke-linecap="round" stroke-linejoin="round" stroke-miterlimit="10" stroke-dasharray="none" stroke-opacity="" data-original="#000000" opacity="1" class=""></path><path d="M0 0h30" style="stroke-width:30;stroke-linecap:round;stroke-linejoin:round;stroke-miterlimit:10;stroke-dasharray:none;stroke-opacity:1" transform="translate(406 256)" fill="none" stroke="#017ffe" stroke-width="30" stroke-linecap="round" stroke-linejoin="round" stroke-miterlimit="10" stroke-dasharray="none" stroke-opacity="" data-original="#000000" opacity="1" class=""></path><path d="M0 0v-90l90-90" style="stroke-width:30;stroke-linecap:round;stroke-linejoin:round;stroke-miterlimit:10;stroke-dasharray:none;stroke-opacity:1" transform="translate(256 346)" fill="none" stroke="#017ffe" stroke-width="30" stroke-linecap="round" stroke-linejoin="round" stroke-miterlimit="10" stroke-dasharray="none" stroke-opacity="" data-original="#000000" opacity="1" class=""></path></g></g></svg>