<svg xmlns="http://www.w3.org/2000/svg" version="1.1" xmlns:xlink="http://www.w3.org/1999/xlink" width="512" height="512" x="0" y="0" viewBox="0 0 512 512" style="enable-background:new 0 0 512 512" xml:space="preserve"><g><path d="M192 312h-16a249.403 249.403 0 0 0 32.81 123.54l.247.433 13.887-7.946-.245-.429A233.376 233.376 0 0 1 192 312Z" fill="#b3da07" opacity="1" data-original="#000000"></path><path d="m490.247 416 6.882-27.53-14.448-9.631 14.707-36.766L472 316.686V16h-80v271.754l-4.285-1.071-15.292 30.584L361.889 312H344V181.917a55.915 55.915 0 0 0 12.773-79.521 47.99 47.99 0 1 0-70.767-61.642A55.649 55.649 0 0 0 256 32a56.214 56.214 0 0 0-41.831 18.786A88.037 88.037 0 0 0 57.39 88.463a48.116 48.116 0 0 0-41.273 44.15 47.608 47.608 0 0 0 12.788 36.134A48.171 48.171 0 0 0 64 184h8a40.068 40.068 0 0 1 39.195 32H88a23.998 23.998 0 0 0-8 46.623v33.642a232.38 232.38 0 0 1-30.567 115.104L18.72 465.115A20.642 20.642 0 0 0 36.643 496h230.715a20.642 20.642 0 0 0 17.922-30.884l-5.28-9.24V232h48v80h-4.944l-20.287 40.575 14.937 22.405-14.565 14.566L309.754 416h-15.197l7.324 43.945A23.924 23.924 0 0 0 325.554 480h11.823a23.995 23.995 0 0 0 45.247 0h26.753a23.995 23.995 0 0 0 45.247 0h11.822a23.924 23.924 0 0 0 23.674-20.054L497.444 416Zm-11.634-70.073-9.536 23.842-3.583-2.389-31.04 7.76-1.067-1.067 13.119-32.795 16.475-10.984ZM408 32h48v24h-48Zm0 40h48v32h-48Zm0 48h48v195.719l-12.897 8.598-13.593-27.186-21.51-5.377Zm-11.714 185.317 22.205 5.552 12.747 25.495-10.16 25.4-10.623-10.624-12.391 3.098L384.944 328Zm9.26 63.543 17.77 17.77-5.874 29.37h-40.218l5.935-41.543ZM88 232h128a8 8 0 0 1 0 16H88a8 8 0 0 1 0-16Zm128-16h-22.623A24.037 24.037 0 0 1 216 200h24a48.116 48.116 0 0 0 24-6.459v234.335l-9.432-16.507A232.375 232.375 0 0 1 224 296.265v-33.642A23.998 23.998 0 0 0 216 216Zm51.358 264H36.643a4.643 4.643 0 0 1-4.031-6.946l30.712-53.747A248.405 248.405 0 0 0 96 296.265V264h112v32.265a248.402 248.402 0 0 0 32.676 123.042l30.713 53.748a4.643 4.643 0 0 1-4.031 6.945Zm-23.97-375.883a48.187 48.187 0 0 0-47.39 28.68l14.661 6.406a32.008 32.008 0 0 1 61.262 10.51A32.004 32.004 0 0 1 240.001 184H216a40.067 40.067 0 0 0-39.195 32H160v-16a24.027 24.027 0 0 1 24-24v-16a40.045 40.045 0 0 0-40 40v16h-16.58A56.08 56.08 0 0 0 72 168h-8a32.004 32.004 0 0 1-31.92-34.287 32 32 0 0 1 53.75-21.112A31.691 31.691 0 0 1 96 136h16a48.17 48.17 0 0 0-15.253-35.095 47.543 47.543 0 0 0-23.154-11.951 72.012 72.012 0 0 1 139.113-6.557l15.264-4.794a89.175 89.175 0 0 0-4.9-12.291A39.992 39.992 0 0 1 296 88h16a55.741 55.741 0 0 0-13.5-36.405A32.001 32.001 0 1 1 328 96v16a47.84 47.84 0 0 0 14.242-2.157 39.983 39.983 0 0 1-56.382 56.413 48.06 48.06 0 0 0-42.472-62.139ZM280 216v-34.073a55.86 55.86 0 0 0 48 7.732V216Zm52.945 112h25.167l11.926 5.963 12.125 24.25-13.321 3.33-.676 4.732-34.795-6.96-4.127 4.128-8.012-12.018Zm5.685 48.684 27.27 5.454L361.062 416h-34.815l-5.387-21.546ZM360 480a8 8 0 1 1 8-8 8.01 8.01 0 0 1-8 8Zm72 0a8 8 0 1 1 8-8 8.01 8.01 0 0 1-8 8Zm42.337-22.685a7.975 7.975 0 0 1-7.89 6.685h-11.823a23.995 23.995 0 0 0-45.247 0h-26.753a23.995 23.995 0 0 0-45.247 0h-11.823a7.975 7.975 0 0 1-7.89-6.685L313.443 432h165.113ZM473.754 416H433.76l5.093-25.467 23.655-5.913 16.365 10.91Z" fill="#b3da07" opacity="1" data-original="#000000"></path><path d="M144 56a47.63 47.63 0 0 0-38.399 19.195l12.793 9.61A32.002 32.002 0 0 1 176 104h16a48.054 48.054 0 0 0-48-48Z" fill="#b3da07" opacity="1" data-original="#000000"></path></g></svg>