<svg xmlns="http://www.w3.org/2000/svg" version="1.1" xmlns:xlink="http://www.w3.org/1999/xlink" width="512" height="512" x="0" y="0" viewBox="0 0 512 512" style="enable-background:new 0 0 512 512" xml:space="preserve" class=""><g><path d="M445.76 323.63c-1.94-5.03-4.8-9.48-8.53-13.24-3.24-3.26-7-5.91-11.16-7.87a40.178 40.178 0 0 0-12.55-3.59c1.35-4.08 2.04-8.28 2.04-12.49.541-20.625-18.692-38.626-39.71-38.05-.79.02-1.59.07-2.38.14.12-1.23.19-2.47.19-3.7.356-14.493-10.448-30.017-24.14-36.26-1.54-.7-3.15-1.29-4.81-1.76l89.3-90.04.09-.09c8.16-8.4 12.64-18.93 12.61-29.64.01-5.22-1.03-10.35-3.1-15.23-2.05-4.86-5.02-9.26-8.81-13.07a39.371 39.371 0 0 0-13.37-8.83c-4.81-1.93-9.99-2.91-15.19-2.91-5.18.03-10.33 1.02-15.09 2.93a39.342 39.342 0 0 0-13.34 8.81L197.39 240.46c-1.77-1.39-3.6-3.14-5.43-5.19-6.717-5.52-18.34-31.022-25.331-53.89-9.919-27.956-28.89-47.506-57.189-59.02-5.3-2-13.33-4.66-21.85-4.72-4.48.01-8.34.79-11.79 2.37-4.22 1.89-7.83 5.33-9.9 9.45-1.57 3-2.42 6.53-2.4 9.95.01 3.07.58 6.18 1.8 9.78 18.461 38.082 39.831 81.093 43 128.01 0 2.89-.13 6.15-.4 9.98-.19 2.66.67 5.24 2.42 7.26 1.76 2.01 4.667 3.25 7.327 3.43 5.22 0 9.833-4.08 10.203-9.29.31-4.37.45-7.98.45-11.38-5.5-67.178-31.068-102.382-44.791-137.534.742-7.101 28.162 4.844 30.112 6.82 37.737 21.765 34.24 56.034 52.109 86.004 4.2 7.4 8.81 13.67 13.68 18.64 9.26 9.47 16.78 11.26 17.61 11.43 3.31.75 6.91-.31 9.3-2.71L392 72.83c3.65-3.7 8.87-5.82 14.32-5.83h.07c5.31 0 10.62 2.18 14.21 5.82 3.98 4.05 6.1 8.97 6.11 14.22-.03 5.62-2.38 10.91-6.97 15.71L295.789 227.742c-3.889 3.922-3.862 10.253.06 14.142a9.967 9.967 0 0 0 7.041 2.899 9.97 9.97 0 0 0 7.102-2.959l9.637-9.72.019-.021a22.266 22.266 0 0 1 7.243-4.833c23.11-9.417 36.777 20.083 18.172 35.506l-7.274 7.336c-3.889 3.922-3.862 10.253.06 14.142a9.967 9.967 0 0 0 7.041 2.899 9.97 9.97 0 0 0 7.102-2.959l7.353-7.416.006-.006c2.021-2.068 5.375-4.384 8.561-5.912 21.503-10.26 36.775 15.869 20.96 30.84l-9.674 9.76c-3.89 3.92-3.865 10.252.055 14.142a9.968 9.968 0 0 0 7.043 2.901 9.967 9.967 0 0 0 7.099-2.957s4.757-3.927 7.517-5.106c2.6-1.13 5.43-1.77 7.78-1.77 10.626-.179 20.013 8.483 19.81 19.94.01 5.93-2.33 11.81-6.26 15.74 0 0-114.39 115.34-114.92 115.85-14.67 14.05-34 21.8-54.44 21.82-21.69-.01-42.323-8.754-57.673-24.234-.7-.67-45.537-45.147-48.817-49.177-11.2-13.73-17.46-26.9-20.29-42.71-.85-4.8-5.85-8.2-10.71-8.2-2.63.46-5.8 2-7.33 4.19-1.54 2.18-2.12 4.84-1.66 7.47 3.26 18.86 11.28 35.85 24.52 51.93 2.81 3.42 46.695 47.375 50.425 50.915 9.62 9.66 20.885 17.185 33.425 22.315 12.16 4.98 24.98 7.5 38.09 7.5h.07c12.46 0 24.62-2.3 36.15-6.83 11.96-4.69 22.75-11.61 32.08-20.56.62-.59 115.28-116.19 115.28-116.19 3.93-3.98 6.97-8.67 9.05-13.93 1.99-5.06 3-10.41 3.01-15.9-.002-5.189-.922-10.229-2.742-14.959zM170.221 79.789a9.997 9.997 0 0 0 13.568 3.99c4.849-2.645 6.635-8.719 3.99-13.567l-30-55c-2.644-4.849-8.719-6.635-13.567-3.99s-6.635 8.719-3.99 13.567z" fill="#ffff" opacity="1" data-original="#ffff" class=""></path><path d="M274.212 83.779a10 10 0 0 0 13.568-3.99l30-55c2.645-4.849.858-10.923-3.99-13.567-4.848-2.645-10.923-.858-13.567 3.99l-30 55c-2.647 4.848-.86 10.922 3.989 13.567zM229 85c5.523 0 10-4.477 10-10V10c0-5.523-4.477-10-10-10s-10 4.477-10 10v65c0 5.523 4.477 10 10 10z" fill="#ffff" opacity="1" data-original="#ffff" class=""></path><circle cx="114.275" cy="332.727" r="10" fill="#ffff" opacity="1" data-original="#ffff" class=""></circle></g></svg>