<svg xmlns="http://www.w3.org/2000/svg" version="1.1" xmlns:xlink="http://www.w3.org/1999/xlink" width="512" height="512" x="0" y="0" viewBox="0 0 512 512" style="enable-background:new 0 0 512 512" xml:space="preserve" class=""><g><path d="M512 458.7c0-4.143-3.357-7.5-7.5-7.5h-5.954l-8.132-62.354 3.374-1.693a7.501 7.501 0 0 0-.147-13.478l-5.549-2.634-7.012-53.767 5.833-2.769a7.499 7.499 0 0 0 .348-13.374l-8.915-4.818-6.86-52.601 8.996-4.861a7.501 7.501 0 0 0 .378-12.979l-12.726-7.866-6.475-49.652 8.411-5.199a7.5 7.5 0 0 0 .941-12.071l-13.068-11.216-6.66-51.067h22.115v16h-2.012c-4.143 0-7.5 3.357-7.5 7.5s3.357 7.5 7.5 7.5h19.024c4.143 0 7.5-3.357 7.5-7.5s-3.357-7.5-7.5-7.5h-2.013V81.3c0-4.143-3.357-7.5-7.5-7.5h-31.571l-2.8-21.47a7.5 7.5 0 0 0-7.438-6.53h-57.242a7.501 7.501 0 0 0-7.438 6.53l-2.8 21.47H340.04a7.499 7.499 0 0 0-7.5 7.5v23.5h-2.012c-4.143 0-7.5 3.357-7.5 7.5s3.357 7.5 7.5 7.5h19.023c4.143 0 7.5-3.357 7.5-7.5s-3.357-7.5-7.5-7.5h-2.012v-16h22.115l-6.66 51.067-13.068 11.216a7.503 7.503 0 0 0 .941 12.071l8.411 5.199-1.623 12.446h-39.451c-28.923 0-52.453 23.531-52.453 52.454V280.8h-8.233v-43.5c0-4.143-3.357-7.5-7.5-7.5h-39.72v-37.667h1.325c4.142 0 7.5-3.357 7.5-7.5s-3.358-7.5-7.5-7.5h-1.325V149.8h1.325c4.142 0 7.5-3.357 7.5-7.5s-3.358-7.5-7.5-7.5h-1.325v-27.333h1.325c4.142 0 7.5-3.357 7.5-7.5s-3.358-7.5-7.5-7.5h-1.325V60.8h1.325c4.142 0 7.5-3.357 7.5-7.5s-3.358-7.5-7.5-7.5h-64.476c-4.142 0-7.5 3.357-7.5 7.5s3.358 7.5 7.5 7.5h1.325v31.667h-1.325c-4.142 0-7.5 3.357-7.5 7.5s3.358 7.5 7.5 7.5h1.325V134.8h-1.325c-4.142 0-7.5 3.357-7.5 7.5s3.358 7.5 7.5 7.5h1.325v27.333h-1.325c-4.142 0-7.5 3.357-7.5 7.5s3.358 7.5 7.5 7.5h1.325V229.8h-26.015c-4.142 0-7.5 3.357-7.5 7.5s3.358 7.5 7.5 7.5h120.06v206.4h-33.56v-42.95c0-14.033-11.417-25.45-25.45-25.45h-48.1c-14.033 0-25.45 11.417-25.45 25.45v42.95h-33.56V244.8h16.06c4.142 0 7.5-3.357 7.5-7.5s-3.358-7.5-7.5-7.5h-23.56a7.5 7.5 0 0 0-7.5 7.5v104.5H20.04a7.5 7.5 0 0 0-7.5 7.5v60.2c0 4.143 3.358 7.5 7.5 7.5s7.5-3.357 7.5-7.5v-52.7H61.4v94.4H27.54v-11.7c0-4.143-3.358-7.5-7.5-7.5s-7.5 3.357-7.5 7.5v11.7H7.5c-4.142 0-7.5 3.357-7.5 7.5s3.358 7.5 7.5 7.5h497a7.5 7.5 0 0 0 7.5-7.5zM163.474 60.8h31.825v31.667h-31.825zm0 46.667h31.825V134.8h-31.825zm0 42.333h31.825v27.333h-31.825zm0 80v-37.667h31.825V229.8zm291.804 5.62-44.809 24.213-44.809-24.213 1.096-8.403 43.713-27.021 43.713 27.021zm-60.585 32.738-35.827 19.36 4.717-36.171zm70.102 40.241-54.326 25.79-54.326-25.79.331-2.538 53.995-29.178 53.995 29.178zm-71.814 34.093-44.009 20.893 5.132-39.349zm17.488 8.302 62.861 29.843-62.861 31.55-62.861-31.55zm-16.719 69.784-55.895 28.054 6.868-52.661zm16.719 8.392 44.291 22.23h-88.583zm72.615 19.662-55.895-28.054 49.027-24.607zm-11.118-85.248-44.009-20.893 38.877-18.456zm-9.894-75.866-35.827-19.36 31.11-16.811zm-10.391-79.683-26.947-16.657 22.926-14.172zm-74.555-60.33 33.344-28.62 33.344 28.62 1.719 13.182-35.063 21.674-35.063-21.674zm44.859-38.504L437.1 96.027l3.81 29.218zm-11.516-9.884L398.449 88.8h24.04zM388.433 60.8h44.072l1.695 13h-47.463zm-4.594 35.227 15.115 12.974-18.925 16.244zm12.366 95.151-26.947 16.657 4.02-30.829zM124.959 451.2v-42.95c0-5.763 4.688-10.45 10.45-10.45h48.1c5.762 0 10.45 4.688 10.45 10.45v42.95zm132.561 0V295.8h36.173v29.7c0 4.143 3.357 7.5 7.5 7.5s7.5-3.357 7.5-7.5v-37.2c0-4.143-3.357-7.5-7.5-7.5h-20.44v-47.546c0-20.652 16.802-37.454 37.453-37.454H355.7l-2.896 22.206-12.726 7.866a7.502 7.502 0 0 0 .378 12.979l8.996 4.861-6.86 52.601-8.915 4.818a7.5 7.5 0 0 0 .348 13.374l5.833 2.769-7.012 53.767-5.549 2.634a7.501 7.501 0 0 0-.147 13.478l3.374 1.693-8.132 62.354h-13.7v-95.7c0-4.143-3.357-7.5-7.5-7.5s-7.5 3.357-7.5 7.5v95.7z" fill="#ffffff" opacity="1" data-original="#000000" class=""></path><path d="M144.029 321.216a7.502 7.502 0 0 0 10.572-.859l21.15-24.895a7.5 7.5 0 0 0-5.716-12.357h-4.437l10.152-11.949a7.5 7.5 0 0 0-11.432-9.713l-20.65 24.306a7.5 7.5 0 0 0 5.716 12.357h4.437l-10.653 12.538a7.501 7.501 0 0 0 .861 10.572z" fill="#ffffff" opacity="1" data-original="#000000" class=""></path></g></svg>