<svg xmlns="http://www.w3.org/2000/svg" version="1.1" xmlns:xlink="http://www.w3.org/1999/xlink" width="512" height="512" x="0" y="0" viewBox="0 0 512 512" style="enable-background:new 0 0 512 512" xml:space="preserve" class=""><g><path d="M481.319 421.323s-389.33-.159-389.406-.157c-7.662-.101-11.8.481-21.998 5.036L6.878 454.333c-4.225 1.87-6.848 5.874-6.844 10.449a11.451 11.451 0 0 0 6.814 10.451c20.674 9.254 63.064 28.171 63.064 28.171 9.544 4.262 13.681 4.739 20.462 4.739l152.604.141a7.5 7.5 0 0 0 0-15s-142.722.004-143.34.009v-20.99h331.385v20.981H280.219c-4.143 0-7.5 3.358-7.5 7.5s3.357 7.5 7.5 7.5H481.32c16.917 0 30.681-13.74 30.681-30.628v-25.705c-.001-16.888-13.765-30.628-30.682-30.628zM43.554 454.392v20.813c-7.77-3.47-15.532-6.932-23.31-10.411zm15 27.512v-34.206s23.852-10.495 26.084-11.008v56.228c-2.232-.513-20.609-8.57-26.084-11.014zm41.085-24.6v-20.99c.618.005 1.254.009 1.929.009h329.456v20.981zM497 477.656c0 8.618-7.034 15.628-15.681 15.628h-35.296v-56.962h35.296c8.646 0 15.681 7.011 15.681 15.628zM12.889 396.562l228.996-.028a7.5 7.5 0 0 0-.002-15L15 381.561V75.503h29.985v250.724c0 6.807 5.542 12.344 12.355 12.344h310.997c5.14 0 9.608-2.775 11.385-7.069 1.771-4.283.598-9.066-3.14-12.796L132.859 75.503h275.854v237.816c0 7.007 5.706 12.708 12.72 12.708h33.059c15.347 0 27.832 12.45 27.832 27.753s-12.485 27.753-27.832 27.753H276.317c-4.143 0-7.5 3.358-7.5 7.5s3.357 7.5 7.5 7.5h178.174c23.617 0 42.832-19.179 42.832-42.753V72.596c0-23.59-19.215-42.781-42.832-42.781h-33.059c-7.014 0-12.72 5.688-12.72 12.68v18.009H117.826L64.855 7.645c-3.748-3.74-8.551-4.897-12.85-3.097-4.3 1.802-7.056 6.276-7.02 11.346v44.609H12.888C5.782 60.503 0 66.292 0 73.408v310.25c0 7.114 5.782 12.904 12.889 12.904zM423.713 44.814h30.778c15.347 0 27.832 12.462 27.832 27.781v248.712c-7.491-6.407-17.217-10.281-27.832-10.281h-30.778zM59.985 23.977l300.232 299.595h-64.305v-10.533c0-4.142-3.357-7.5-7.5-7.5s-7.5 3.358-7.5 7.5v10.533h-32.174v-20.445a7.5 7.5 0 0 0-15 0v20.445h-32.203v-10.533a7.5 7.5 0 0 0-15 0v10.533h-32.174v-20.445a7.5 7.5 0 0 0-15 0v20.445H107.16v-10.533a7.5 7.5 0 0 0-15 0v10.533H59.985z" fill="#ffffff" opacity="1" data-original="#000000" class=""></path><path d="M124.468 268.99h83.095c3.131 0 8.96 0 11.192-5.395 2.195-5.307-1.637-9.13-4.436-11.922l-82.261-82.078c-2.794-2.81-6.622-6.657-11.936-4.465-5.4 2.229-5.4 8.053-5.4 11.182v82.938c.001 5.917 3.826 9.74 9.746 9.74zm5.255-80.537 65.683 65.537h-65.683z" fill="#ffffff" opacity="1" data-original="#000000" class=""></path></g></svg>