<svg xmlns="http://www.w3.org/2000/svg" version="1.1" xmlns:xlink="http://www.w3.org/1999/xlink" width="512" height="512" x="0" y="0" viewBox="0 0 1200 1200" style="enable-background:new 0 0 512 512" xml:space="preserve" class=""><g><g fill-rule="evenodd"><path d="M1081.197 518.917c-12.43-19.259-28.855-34.76-47.134-48.436-30.799-23.054-64.806-40.598-100.885-53.027-63.027-21.742-126.808-41.285-190.33-61.552a95.707 95.707 0 0 0-20.973-4.125c-20.35-1.668-38.205 10.357-44.09 29.021-6.123 19.368.568 39.141 17.984 49.755 6.966 4.263 15.179 6.691 23.025 9.203 52.248 16.545 104.974 31.67 156.635 49.773 30.213 10.587 59.361 24.657 87.759 39.525 14.428 7.534 27.188 19.249 38.884 30.918 12.063 11.999 11.642 20.038 3.116 35.346-10.669 19.148-26.252 33.796-43.485 46.813-29.662 22.439-62.331 39.745-96.76 53.458-54.228 21.596-108.859 42.238-163.197 63.505-9.937 3.886-20.35 7.589-28.893 13.694-15.088 10.834-18.901 27.041-15.143 44.64 3.501 16.427 17.929 30.14 35.125 30.873 11.477.513 23.833-1.669 34.612-5.721 59.104-22.292 118.393-44.145 176.471-68.894 32.705-13.934 63.908-31.954 94.413-50.415 29.772-18.003 54.889-41.945 74.688-70.911 12.173-17.893 21.67-37.014 25.501-60.883 4.86-25.179-2.602-49.764-17.323-72.56z" fill="#cdd2da" opacity="0.7019607843137254" data-original="#000000" class=""></path><path d="M856.878 615.621c10.413.844 21.669.165 31.514-2.97 17.875-5.72 28.397-23.631 27.188-41.798-1.302-19.378-12.649-33.659-31.386-38.792-5.72-1.55-11.696-2.356-17.599-2.952-42.752-4.106-85.431-8.644-128.22-12.035-111.719-8.928-223.448-17.499-335.223-25.858-82.021-6.142-164.077-11.861-246.153-17.334-9.331-.623-19.268.073-28.159 2.677-17.929 5.225-29.075 22.201-28.837 40.818.22 19.02 11.312 34.722 29.735 39.91 9.094 2.566 18.736 3.455 28.196 4.125 112.984 8.295 225.969 16.398 338.898 24.528.036-.201.036-.385.073-.55 61.781 4.95 123.608 9.707 185.39 14.923 58.188 4.914 116.358 10.616 174.583 15.308z" fill="#cdd2da" opacity="0.7019607843137254" data-original="#000000" class=""></path></g></g></svg>