<svg xmlns="http://www.w3.org/2000/svg" version="1.1" xmlns:xlink="http://www.w3.org/1999/xlink" width="512" height="512" x="0" y="0" viewBox="0 0 512 512" style="enable-background:new 0 0 512 512" xml:space="preserve" class=""><g><path d="M410.343 18.343 388.686 40H360a8 8 0 0 0-8 8v28.686L324.686 104H296a8 8 0 0 0-8 8v28.686L260.686 168H232a8 8 0 0 0-8 8v28.686L188.687 240h-27.353a95.646 95.646 0 0 1 42.98-64.913l-8.628-13.475A112.01 112.01 0 0 0 256 368h102.753A152.12 152.12 0 0 1 256 408c-83.813 0-152-68.187-152-152H88a167.794 167.794 0 0 0 4.824 40H32v-80h64a8 8 0 0 0 7.39-4.938l12.922-31.197a8 8 0 0 0-1.733-8.719l-45.256-45.253 56.57-56.57 45.253 45.256a7.997 7.997 0 0 0 8.72 1.734l31.196-12.922A8 8 0 0 0 216 96V32h80v48h16V24a8 8 0 0 0-8-8h-96a8 8 0 0 0-8 8v66.654l-21.32 8.831-47.13-47.132a8.002 8.002 0 0 0-11.315 0l-67.882 67.882a8.002 8.002 0 0 0 0 11.315l47.132 47.13-8.83 21.32H24a8 8 0 0 0-8 8v96a8 8 0 0 0 8 8h66.654l8.831 21.32-47.132 47.13a8.002 8.002 0 0 0 0 11.315l67.882 67.882a8.002 8.002 0 0 0 11.315 0l47.13-47.132 21.32 8.83V488a8 8 0 0 0 8 8h96a8 8 0 0 0 8-8v-66.654l21.32-8.831 47.13 47.132a8.002 8.002 0 0 0 11.315 0l67.882-67.882a8 8 0 0 0 0-11.315L447.196 368H488a8 8 0 0 0 8-8V88a8 8 0 0 0-8-8h-64a8 8 0 0 0-8 8v56h-56a8 8 0 0 0-8 8v40h-56a8 8 0 0 0-8 8v48h-56a8 8 0 0 0-8 8v32h-58.509A95.565 95.565 0 0 1 160 256h32a8.002 8.002 0 0 0 5.657-2.343L235.314 216H264a8 8 0 0 0 8-8v-28.686L299.314 152H328a8 8 0 0 0 8-8v-28.686L363.314 88H392a8 8 0 0 0 8-8V51.314L419.313 32H496V16h-80a8.002 8.002 0 0 0-5.657 2.343Zm-284.45 424.334-56.57-56.57 43.044-43.042a169.303 169.303 0 0 0 56.568 56.568ZM216 480v-60.824a167.978 167.978 0 0 0 80-.016V480Zm226.677-93.893-56.57 56.57-43.032-43.034A168.057 168.057 0 0 0 381.207 368h43.361ZM432 96h48v256h-48V96Zm-64 64h48v192h-48V160Zm-64 48h48v144h-48V208Zm-64 56h48v88h-32a96.214 96.214 0 0 1-16-1.34V264Zm-16 40v42.509A96.52 96.52 0 0 1 172.887 304Zm32-104h-16v-16h16Zm64-64h-16v-16h16Zm64-64h-16V56h16Z" fill="#ffffff" opacity="1" data-original="#000000" class=""></path></g></svg>