<svg xmlns="http://www.w3.org/2000/svg" version="1.1" xmlns:xlink="http://www.w3.org/1999/xlink" width="512" height="512" x="0" y="0" viewBox="0 0 512 512" style="enable-background:new 0 0 512 512" xml:space="preserve" class=""><g><path d="M341.768 256.385h74.234a8 8 0 0 0 8-8v-37.833a8 8 0 0 0-8-8h-74.234a8 8 0 0 0-8 8v37.833a8 8 0 0 0 8 8zm8-37.833h58.234v21.833h-58.234zm-134.144-21.707h70.087a8 8 0 0 0 8-8v-70.087a8 8 0 0 0-8-8h-70.087a8 8 0 0 0-8 8v70.087a8 8 0 0 0 8 8zm8-70.087h54.087v54.087h-54.087zm70.085 93.032a8 8 0 0 1-8 8h-70.085a8 8 0 0 1 0-16h70.085a8 8 0 0 1 8 8zm171.718 48.381h-16.912V166.375a8 8 0 0 0-8-8h-35.45v-93.1h2.193a8 8 0 0 0 0-16h-56.747a8 8 0 0 0 0 16h2.193v93.1h-27.449V87.214a8 8 0 0 0-8-8h-19.434V57.275a8 8 0 0 0-8-8h-78.31a8 8 0 0 0-8 8v21.938h-19.434a8 8 0 0 0-8 8v54.25l-60.08-26.219a7.998 7.998 0 0 0-11.2 7.332v35.799h-43.98a8 8 0 0 0-8 8v101.796H35.906a8 8 0 0 0-8 8v29.064a8 8 0 0 0 5.126 7.466l31.701 12.202a190.921 190.921 0 0 0 20.008 48.265L70.944 404.23a8 8 0 0 0 1.654 8.904l41.104 41.104a8.003 8.003 0 0 0 8.904 1.654l31.074-13.801a190.972 190.972 0 0 0 48.251 20.004l12.205 31.709a8 8 0 0 0 7.466 5.126h58.129a8 8 0 0 0 7.466-5.126l12.202-31.7a190.854 190.854 0 0 0 48.265-20.009l31.063 13.797a8 8 0 0 0 8.904-1.655l41.103-41.103a8 8 0 0 0 1.654-8.904l-13.801-31.074a190.964 190.964 0 0 0 20.004-48.251L468.3 312.7a8 8 0 0 0 5.126-7.466v-29.063a7.999 7.999 0 0 0-7.999-8zM368.705 107.22h20.36v9.212h-20.36zm20.36-41.945V91.22h-20.36V65.275zm-20.36 67.157h20.36v25.943h-20.36zm63.81 41.943v93.796h-107.26v-93.796zM330.081 284.171c-4.026 40.268-38.103 71.815-79.414 71.815-41.31 0-75.387-31.547-79.413-71.815zM219.512 65.275h62.31v13.938h-62.31zm89.743 29.939v172.957H192.079V95.214zm-133.176 63.707v109.25h-55.28V134.796zM68.818 174.375h35.98v93.796h-35.98zm388.609 125.366-30.463 11.726a7.997 7.997 0 0 0-4.908 5.613 175.037 175.037 0 0 1-21.279 51.328 8.002 8.002 0 0 0-.499 7.441l13.259 29.855-33.334 33.335-29.845-13.255a8.002 8.002 0 0 0-7.442.5 174.96 174.96 0 0 1-51.34 21.283 7.996 7.996 0 0 0-5.614 4.908l-11.723 30.454h-47.143l-11.726-30.463a7.997 7.997 0 0 0-5.613-4.908 175.081 175.081 0 0 1-51.328-21.279 7.997 7.997 0 0 0-7.441-.499l-29.855 13.259-33.336-33.335 13.256-29.844a8.001 8.001 0 0 0-.5-7.442 175 175 0 0 1-21.283-51.341 7.999 7.999 0 0 0-4.908-5.613l-30.455-11.723V284.17H155.19c4.079 49.104 45.34 87.815 95.478 87.815 50.139 0 91.4-38.712 95.479-87.815h111.282v15.571zM501.58 49.255 476.468 17.36c-2.146-2.727-5.369-4.291-8.84-4.291s-6.693 1.564-8.84 4.291l-25.113 31.897c-2.689 3.417-3.181 7.968-1.282 11.876 1.897 3.907 5.776 6.334 10.125 6.334h2.427v52.582a8 8 0 0 0 8 8h29.367a8 8 0 0 0 8-8V67.468h2.428c4.348 0 8.228-2.428 10.125-6.336s1.405-8.459-1.285-11.877zm-19.268 2.213a8 8 0 0 0-8 8v52.582h-13.367V59.467a7.997 7.997 0 0 0-8.001-8h-.645l15.329-19.47 15.33 19.471zM59.055 128.05a8 8 0 0 0 8-8V67.468h2.428c4.349 0 8.229-2.429 10.126-6.338 1.897-3.908 1.404-8.459-1.286-11.875L53.211 17.36c-2.146-2.727-5.369-4.291-8.84-4.291s-6.693 1.564-8.84 4.291L10.418 49.258c-2.689 3.417-3.181 7.968-1.282 11.876 1.897 3.907 5.776 6.334 10.125 6.334h2.428v52.582a8 8 0 0 0 8 8zM29.042 51.467l15.329-19.47 15.33 19.471h-.646a8 8 0 0 0-8 8v52.582H37.689V59.467a7.997 7.997 0 0 0-8.001-8z" fill="#ffffff" opacity="1" data-original="#000000" class=""></path></g></svg>