<svg xmlns="http://www.w3.org/2000/svg" version="1.1" xmlns:xlink="http://www.w3.org/1999/xlink" width="512" height="512" x="0" y="0" viewBox="0 0 682.667 682.667" style="enable-background:new 0 0 512 512" xml:space="preserve" class=""><g><defs><clipPath id="a" clipPathUnits="userSpaceOnUse"><path d="M0 512h512V0H0Z" fill="#b3da07" opacity="1" data-original="#000000"></path></clipPath><clipPath id="b" clipPathUnits="userSpaceOnUse"><path d="M0 512h512V0H0Z" fill="#b3da07" opacity="1" data-original="#000000"></path></clipPath><clipPath id="c" clipPathUnits="userSpaceOnUse"><path d="M0 512h512V0H0Z" fill="#b3da07" opacity="1" data-original="#000000"></path></clipPath></defs><g clip-path="url(#a)" transform="matrix(1.33333 0 0 -1.33333 0 682.667)"><path d="M0 0v-27.673h-206.476v285.606H0V34.334" style="stroke-width:15;stroke-linecap:round;stroke-linejoin:round;stroke-miterlimit:10;stroke-dasharray:none;stroke-opacity:1" transform="translate(504.5 35.333)" fill="none" stroke="#b3da07" stroke-width="15" stroke-linecap="round" stroke-linejoin="round" stroke-miterlimit="10" stroke-dasharray="none" stroke-opacity="" data-original="#000000" opacity="1" class=""></path><path d="M0 0v-194.162h-290.524v111.018l75.588 13.775v28.137z" style="stroke-width:15;stroke-linecap:round;stroke-linejoin:round;stroke-miterlimit:10;stroke-dasharray:none;stroke-opacity:1" transform="translate(298.024 201.823)" fill="none" stroke="#b3da07" stroke-width="15" stroke-linecap="round" stroke-linejoin="round" stroke-miterlimit="10" stroke-dasharray="none" stroke-opacity="" data-original="#000000" opacity="1" class=""></path></g><path d="M0 0h11.964l3.811-56.771 3.144-46.682 4.369-65.008" style="stroke-width:15;stroke-linecap:round;stroke-linejoin:round;stroke-miterlimit:10;stroke-dasharray:none;stroke-opacity:1" transform="matrix(1.33333 0 0 -1.33333 132.83 233.745)" fill="none" stroke="#b3da07" stroke-width="15" stroke-linecap="round" stroke-linejoin="round" stroke-miterlimit="10" stroke-dasharray="none" stroke-opacity="" data-original="#000000" opacity="1" class=""></path><path d="m0 0 7.297 108.575 3.132 46.683 3.811 56.77h8.754" style="stroke-width:15;stroke-linecap:round;stroke-linejoin:round;stroke-miterlimit:10;stroke-dasharray:none;stroke-opacity:1" transform="matrix(1.33333 0 0 -1.33333 53.785 516.45)" fill="none" stroke="#b3da07" stroke-width="15" stroke-linecap="round" stroke-linejoin="round" stroke-miterlimit="10" stroke-dasharray="none" stroke-opacity="" data-original="#000000" opacity="1" class=""></path><path d="m0 0 6.198 92.271 2.974 44.331 3.54 52.676H69.72l3.54-52.676 2.974-44.331 2.716-40.422" style="stroke-width:15;stroke-linecap:round;stroke-linejoin:round;stroke-miterlimit:10;stroke-dasharray:none;stroke-opacity:1" transform="matrix(1.33333 0 0 -1.33333 237.547 444.228)" fill="none" stroke="#b3da07" stroke-width="15" stroke-linecap="round" stroke-linejoin="round" stroke-miterlimit="10" stroke-dasharray="none" stroke-opacity="" data-original="#000000" opacity="1" class=""></path><g clip-path="url(#b)" transform="matrix(1.33333 0 0 -1.33333 0 682.667)"><path d="M429.8 7.661h-57.075v68.006H429.8Z" style="stroke-width:15;stroke-linecap:round;stroke-linejoin:round;stroke-miterlimit:10;stroke-dasharray:none;stroke-opacity:1" fill="none" stroke="#b3da07" stroke-width="15" stroke-linecap="round" stroke-linejoin="round" stroke-miterlimit="10" stroke-dasharray="none" stroke-opacity="" data-original="#000000" opacity="1" class=""></path></g><path d="M463.272 223.146H339.251v28.272h124.021zM386.233 165.075h-46.981v28.271h46.981zM463.272 165.075h-46.981v28.271h46.981zM386.233 107.004h-46.981v28.272h46.981zM463.272 107.004h-46.981v28.272h46.981z" style="stroke-width:15;stroke-linecap:round;stroke-linejoin:round;stroke-miterlimit:10;stroke-dasharray:none;stroke-opacity:1" transform="matrix(1.33333 0 0 -1.33333 0 682.667)" fill="none" stroke="#b3da07" stroke-width="15" stroke-linecap="round" stroke-linejoin="round" stroke-miterlimit="10" stroke-dasharray="none" stroke-opacity="" data-original="#000000" opacity="1" class=""></path><g clip-path="url(#c)" transform="matrix(1.33333 0 0 -1.33333 0 682.667)"><path d="M0 0h-74.7l17.124 54.192H0Z" style="stroke-width:15;stroke-linecap:round;stroke-linejoin:round;stroke-miterlimit:10;stroke-dasharray:none;stroke-opacity:1" transform="translate(504.5 293.266)" fill="none" stroke="#b3da07" stroke-width="15" stroke-linecap="round" stroke-linejoin="round" stroke-miterlimit="10" stroke-dasharray="none" stroke-opacity="" data-original="#000000" opacity="1" class=""></path><path d="M0 0a22.508 22.508 0 0 0-6.627-15.991 22.508 22.508 0 0 0-15.991-6.627h-22.493a22.488 22.488 0 0 0-6.56-14.373 22.544 22.544 0 0 0-15.99-6.627h-.589a7.707 7.707 0 0 1-7.712-7.713v-14.046c0-7.803-6.333-14.136-14.136-14.136a14.082 14.082 0 0 0-9.997 4.139 14.105 14.105 0 0 0-4.139 9.997v14.046c0 4.264-3.46 7.713-7.724 7.713a23.553 23.553 0 0 0-16.217 6.479c-4.218 4.027-6.898 9.602-6.977 15.844a22.554 22.554 0 0 0 6.627 16.285 22.544 22.544 0 0 0 15.99 6.627h22.505c.384 5.598 2.827 10.642 6.559 14.373a22.546 22.546 0 0 0 15.991 6.627h44.862C-10.122 22.617 0 12.484 0 0Z" style="stroke-width:15;stroke-linecap:round;stroke-linejoin:round;stroke-miterlimit:10;stroke-dasharray:none;stroke-opacity:1" transform="translate(309.48 481.723)" fill="none" stroke="#b3da07" stroke-width="15" stroke-linecap="round" stroke-linejoin="round" stroke-miterlimit="10" stroke-dasharray="none" stroke-opacity="" data-original="#000000" opacity="1" class=""></path><path d="M0 0a22.546 22.546 0 0 0-6.627-15.99 22.546 22.546 0 0 0-15.991-6.627h-.588a7.707 7.707 0 0 1-7.712-7.713v-14.045c0-7.804-6.333-14.137-14.136-14.137a14.097 14.097 0 0 0-9.997 4.14 14.102 14.102 0 0 0-4.139 9.997v14.045a7.708 7.708 0 0 1-7.713 7.713 23.533 23.533 0 0 0-16.217 6.479c-4.229 4.027-6.909 9.602-6.989 15.844v.397c-12.417 1.074-22.165 11.511-22.165 24.211 0 13.424 10.89 24.315 24.314 24.315 13.423 0 24.314-10.891 24.314-24.315 0-.565-.022-1.13-.068-1.696h41.096C-10.132 22.618 0 12.497 0 0Z" style="stroke-width:15;stroke-linecap:round;stroke-linejoin:round;stroke-miterlimit:10;stroke-dasharray:none;stroke-opacity:1" transform="translate(128.143 426.62)" fill="none" stroke="#b3da07" stroke-width="15" stroke-linecap="round" stroke-linejoin="round" stroke-miterlimit="10" stroke-dasharray="none" stroke-opacity="" data-original="#000000" opacity="1" class=""></path><path d="M0 0h-70.906l3.132 46.683h64.63z" style="stroke-width:15;stroke-linecap:round;stroke-linejoin:round;stroke-miterlimit:10;stroke-dasharray:none;stroke-opacity:1" transform="translate(118.541 233.238)" fill="none" stroke="#b3da07" stroke-width="15" stroke-linecap="round" stroke-linejoin="round" stroke-miterlimit="10" stroke-dasharray="none" stroke-opacity="" data-original="#000000" opacity="1" class=""></path><path d="M0 0h-70.036l2.974 44.33h64.088z" style="stroke-width:15;stroke-linecap:round;stroke-linejoin:round;stroke-miterlimit:10;stroke-dasharray:none;stroke-opacity:1" transform="translate(254.394 271.1)" fill="none" stroke="#b3da07" stroke-width="15" stroke-linecap="round" stroke-linejoin="round" stroke-miterlimit="10" stroke-dasharray="none" stroke-opacity="" data-original="#000000" opacity="1" class=""></path><path d="M154.17 111.649h-26.028v26.027h26.028zM207.701 111.649h-26.027v26.027h26.027zM261.232 111.649h-26.028v26.027h26.028z" style="stroke-width:15;stroke-linecap:round;stroke-linejoin:round;stroke-miterlimit:10;stroke-dasharray:none;stroke-opacity:1" fill="none" stroke="#b3da07" stroke-width="15" stroke-linecap="round" stroke-linejoin="round" stroke-miterlimit="10" stroke-dasharray="none" stroke-opacity="" data-original="#000000" opacity="1" class=""></path><path d="M0 0h208.732" style="stroke-width:15;stroke-linecap:round;stroke-linejoin:round;stroke-miterlimit:10;stroke-dasharray:none;stroke-opacity:1" transform="translate(52.5 79)" fill="none" stroke="#b3da07" stroke-width="15" stroke-linecap="round" stroke-linejoin="round" stroke-miterlimit="10" stroke-dasharray="none" stroke-opacity="" data-original="#000000" opacity="1" class=""></path></g></g></svg>