<svg xmlns="http://www.w3.org/2000/svg" version="1.1" xmlns:xlink="http://www.w3.org/1999/xlink" width="512" height="512" x="0" y="0" viewBox="0 0 512 512" style="enable-background:new 0 0 512 512" xml:space="preserve" class=""><g><path d="M391.719 170.313c28.215 0 51.094-22.875 51.094-51.094s-22.88-51.094-51.094-51.094c-28.219 0-51.094 22.875-51.094 51.094.027 28.207 22.887 51.066 51.094 51.094zm0-17.032c-15.489-.058-28.985-10.554-32.856-25.547h65.707c-3.87 14.993-17.367 25.489-32.851 25.547zm0-68.125c15.484.059 28.98 10.555 32.851 25.547h-65.707c3.871-14.992 17.367-25.488 32.856-25.547zm0 0" fill="#ffffff" opacity="1" data-original="#000000" class=""></path><path d="M502.418 143.805v-33.102h-21.883c-.11-1.105-.078-2.187-.23-3.305L512 89.105 477.937 30.11 446.22 48.43a88.207 88.207 0 0 0-20.442-11.812V0h-68.12v36.617a88.468 88.468 0 0 0-20.438 11.836l-31.723-18.34-34.062 58.996 31.652 18.266c-.145 1.105-.117 2.223-.219 3.328H42.578v209.39C16.871 330.517.04 355.466 0 383.204v68.125c0 30.563 23.953 51.094 59.61 51.094h102.187c35.652 0 59.61-20.531 59.61-51.094v-7.351h52.913l34.14 35.453c.06.066.145.082.212.152.473.398.984.75 1.527 1.047.426.305.88.57 1.352.8.078 0 .12.094.195.118l53.856 19.066c.914.32 1.875.485 2.843.489a8.516 8.516 0 0 0 8.121-11.07l-14.398-46.055h73.344l66.91-73.344V165.918l9.578-16.59zm-17.031-9.836-5.04-2.906c.145-1.106.118-2.223.223-3.329h4.817zm-190.68-51.094 17.031-29.5 27.422 15.832 4.59-4.078a71.798 71.798 0 0 1 25.11-14.547l5.824-1.941V17.03h34.062v31.61l5.828 1.941a71.85 71.85 0 0 1 25.117 14.555l4.59 4.07 27.414-15.832 17.032 29.5-27.38 15.805 1.227 6.011a71.504 71.504 0 0 1 .059 29.082l-1.223 6.02 23.977 13.844v7.664l-13.692 23.719-27.422-15.833-4.59 4.079a71.798 71.798 0 0 1-25.109 14.547l-5.824 1.984v31.61h-34.062v-31.61l-5.829-1.942a71.798 71.798 0 0 1-25.109-14.546l-4.59-4.079-27.422 15.833-17.031-29.5 27.32-15.77-1.226-6.023a73.02 73.02 0 0 1 0-29.106l1.226-6.02zM17.031 383.203c.028-28.207 22.887-51.066 51.094-51.094v35.278c0 22.808 15.277 41.363 34.063 41.363h17.03c18.786 0 34.063-18.555 34.063-41.363v-35.278c28.207.028 51.063 22.887 51.094 51.094v51.094H17.031zm102.188-8.515v-42.579h17.031v35.278c0 13.191-7.8 24.332-17.031 24.332h-17.031c-9.231 0-17.032-11.14-17.032-24.332v-35.278h17.032v42.579zm42.578 110.703H59.609c-20.582 0-42.578-8.954-42.578-34.063h187.344c0 25.11-21.996 34.063-42.578 34.063zm59.61-58.446V389.07l36.495 37.875zm93.406 34.496-47.278-49.046 24.524-23.633 47.28 49.05zm-59.098-61.308-11.813-12.266 24.528-23.637 11.808 12.262zm-23.63-24.528-5.91-6.128c-6.53-6.774-6.331-17.555.442-24.082a17.014 17.014 0 0 1 11.82-4.77h.325a16.957 16.957 0 0 1 11.922 5.21l5.91 6.134zm98.321 94.458 16.946-16.336 7.859 25.113zm112.407-59.356v-34.855h31.796zm42.574-51.887h-59.61v68.125h-73.23l-54.102-56.132-35.484-36.79c-12.875-13.539-34.29-14.082-47.832-1.207a33.816 33.816 0 0 0-7.195 9.895 67.986 67.986 0 0 0-54.653-27.633H68.125c-2.848.02-5.691.215-8.516.586v-187.93h243.258c.102 1.106.074 2.223.219 3.329l-31.652 18.265 34.062 58.996 31.723-18.316a88.462 88.462 0 0 0 20.437 11.812v36.618h68.125V201.82a88.63 88.63 0 0 0 20.438-11.836l31.726 18.317 7.446-12.887V358.82zm0 0" fill="#ffffff" opacity="1" data-original="#000000" class=""></path><path d="M221.406 281.016h17.031v17.03h-17.03zM110.703 281.016h17.031v17.03h-17.03zM110.703 178.828h17.031v17.031h-17.03zM110.703 212.89h17.031v17.032h-17.03zM110.703 246.953h17.031v17.031h-17.03zM281.016 323.594h17.03v17.031h-17.03zM246.953 178.828h17.031v17.031h-17.03zM212.89 178.828h17.032v17.031H212.89zM178.828 178.828h17.031v17.031h-17.03zM144.766 178.828h17.03v17.031h-17.03zM383.203 255.469h17.031V272.5h-17.03zM383.203 289.531h17.031v17.031h-17.03zM383.203 323.594h17.031v17.031h-17.03zM349.14 323.594h17.032v17.031H349.14zM315.078 323.594h17.031v17.031h-17.03zm0 0" fill="#ffffff" opacity="1" data-original="#000000" class=""></path></g></svg>