<svg xmlns="http://www.w3.org/2000/svg" version="1.1" xmlns:xlink="http://www.w3.org/1999/xlink" width="512" height="512" x="0" y="0" viewBox="0 0 512 512" style="enable-background:new 0 0 512 512" xml:space="preserve" class=""><g><path d="m123.583 282.227.001.004c.317-.32.296-.301-.001-.004z" fill="#017ffe" opacity="1" data-original="#000000" class=""></path><path d="m500.65 211.459-25.46-6.122c-5.536-24.167-15.071-47.133-28.399-68.487l12.903-21.662a14.998 14.998 0 0 0-2.285-18.279l-42.285-42.285a15.018 15.018 0 0 0-18.279-2.285l-21.662 12.903c-21.354-13.328-44.32-22.863-68.487-28.399l-6.122-25.46A14.996 14.996 0 0 0 286.03.031h-59.992a14.995 14.995 0 0 0-14.544 11.352l-6.122 25.46c-24.167 5.536-47.133 15.071-68.487 28.399l-21.662-12.903a14.998 14.998 0 0 0-18.279 2.285L54.657 96.908a15 15 0 0 0-2.285 18.279l12.903 21.662c-13.328 21.354-22.863 44.32-28.399 68.487l-25.46 6.122A14.996 14.996 0 0 0 .064 226.002v59.992c0 6.884 4.687 12.889 11.366 14.544l25.46 6.122c3.691 16.014 9.246 31.399 16.38 46.155 11.015-11.06 66.337-66.619 70.313-70.59-.196-1.01-2.339-20.221-2.396-23.963-1.276-76.427 60.283-137.233 134.904-137.233 75.132 0 135.043 60.582 134.76 135.437-.322 69.227-51.991 128.161-124.155 133.551-3.122.24-17.236 2.322-36.909-1.556l-70.391 70.391c14.7 7.091 30.027 12.61 45.975 16.287l6.122 25.475a14.996 14.996 0 0 0 14.544 11.352h59.992a14.995 14.995 0 0 0 14.544-11.352l6.122-25.46c24.167-5.536 47.133-15.071 68.487-28.399l21.662 12.903c5.873 3.516 13.416 2.549 18.279-2.285l42.285-42.285a15 15 0 0 0 2.285-18.279l-12.903-21.662c13.343-21.354 22.863-44.32 28.399-68.502l25.445-6.107c6.679-1.655 11.366-7.66 11.366-14.544v-59.992a14.993 14.993 0 0 0-11.35-14.543z" fill="#017ffe" opacity="1" data-original="#000000" class=""></path><path d="M357.518 228.58a14.822 14.822 0 0 0-10.445-10.634 14.819 14.819 0 0 0-14.399 3.827L298.449 256c-11.699 11.699-30.717 11.699-42.417 0-11.688-11.688-11.688-30.728 0-42.417l34.24-34.24a14.826 14.826 0 0 0-6.816-24.847c-63.286-16.083-120.238 25.14-130.683 82.067-3.354 18.748-1.86 37.422 4.276 54.617-8.534 8.535-140.348 140.347-143.891 143.892-17.591 17.591-17.591 46.21.278 64.079 17.702 16.78 44.813 17.486 63.522-.278L220.85 354.981c23.043 8.224 48.742 8.057 73.891-.817 45.315-15.99 77.03-69.653 62.777-125.584z" fill="#017ffe" opacity="1" data-original="#000000" class=""></path></g></svg>