<svg xmlns="http://www.w3.org/2000/svg" version="1.1" xmlns:xlink="http://www.w3.org/1999/xlink" width="512" height="512" x="0" y="0" viewBox="0 0 512 512" style="enable-background:new 0 0 512 512" xml:space="preserve"><g><path d="M464.286 393.782h4.045v-78.895a8 8 0 0 0-8-8h-84.53a8 8 0 0 0-8 8v76.531h-18.463v-76.531a8 8 0 0 0-8-8h-84.53a8 8 0 0 0-8 8v76.531h-34.935v-5.556c0-11.886-9.67-21.556-21.556-21.556h-5.579l-19.346-73.124.802-2.082a108.61 108.61 0 0 0 24.081-9.983l15.435 6.855a8 8 0 0 0 8.904-1.654l22.63-22.63a8 8 0 0 0 1.654-8.904l-6.857-15.44a108.674 108.674 0 0 0 9.979-24.073l15.756-6.064a8 8 0 0 0 5.127-7.466v-32.003a8 8 0 0 0-5.126-7.466l-15.751-6.062a108.502 108.502 0 0 0-5.057-14.168l64.358-53.926 65.244 57.169c.321 7.8 3.382 14.904 8.242 20.375-22.569 9.575-38.438 31.958-38.438 57.978 0 22.382 12.044 43.264 31.431 54.497a8 8 0 0 0 12.011-6.922v-43.745l18.939-10.935 18.939 10.935v44.38a8 8 0 0 0 11.846 7.015c20.185-11.066 32.724-32.227 32.724-55.224 0-26.021-15.869-48.403-38.438-57.978 5.143-5.79 8.271-13.409 8.271-21.744 0-17.667-14.05-32.113-31.562-32.755L343.05 45.328c-.553-20.09-17.056-36.267-37.277-36.267-13.264 0-24.925 6.965-31.541 17.423l-94.237 55.949a108.447 108.447 0 0 0-11.8-4.053l-6.064-15.755a7.998 7.998 0 0 0-7.466-5.126h-32.003a8 8 0 0 0-7.466 5.126L109.13 78.38a108.633 108.633 0 0 0-24.072 9.981l-15.441-6.858a8 8 0 0 0-8.904 1.655l-22.63 22.63a8 8 0 0 0-1.654 8.904l6.857 15.438a108.577 108.577 0 0 0-9.981 24.076L17.55 160.27a8 8 0 0 0-5.126 7.466v32.003a8 8 0 0 0 5.127 7.466l15.751 6.062a108.69 108.69 0 0 0 9.982 24.082l-6.855 15.434a8 8 0 0 0 1.655 8.904l22.631 22.63a7.974 7.974 0 0 0 2.847 1.82l4.676 78.168h-3.014c-11.885 0-21.554 9.67-21.554 21.556v9.316C22.825 403.259 8 423.514 8 447.178c0 30.746 25.014 55.76 55.76 55.76h384.479c30.746 0 55.761-25.014 55.761-55.761 0-25.168-16.767-46.485-39.714-53.395zm-52.372-70.895h12.303v18.488h-12.303zm-28.113 0h12.113v26.488a8 8 0 0 0 8 8h28.303a8 8 0 0 0 8-8v-26.488h12.114v68.697a55.963 55.963 0 0 0-4.092-.166h-64.438zm-90.88 0h12.303v18.488h-12.303zm-28.113 0h12.113v26.488a8 8 0 0 0 8 8h28.303a8 8 0 0 0 8-8v-26.488h12.114v68.531h-68.53zm-25.566-217.099-22.631-22.63a7.968 7.968 0 0 0-3.213-1.95l55.134-32.733c.725 12.94 8.077 24.131 18.707 30.244l-48.364 40.525 2.022-4.552a7.999 7.999 0 0 0-1.655-8.904zm209.024 115.847a46.95 46.95 0 0 1-12.569 31.972v-32.761a7.998 7.998 0 0 0-4-6.928l-26.939-15.554a8 8 0 0 0-8 0l-26.939 15.554a7.998 7.998 0 0 0-4 6.928v31.476c-7.257-8.42-11.441-19.292-11.441-30.687 0-25.885 21.06-46.945 46.944-46.945 25.884.001 46.944 21.06 46.944 46.945zm-46.946-96.499c9.251 0 16.777 7.526 16.777 16.777s-7.526 16.777-16.777 16.777-16.777-7.526-16.777-16.777 7.526-16.777 16.777-16.777zm-28.498.598-51.761-45.355a37.54 37.54 0 0 0 17.554-16.341l46.194 49.569a33.03 33.03 0 0 0-11.987 12.127zm-67.05-100.673c11.747 0 21.304 9.557 21.304 21.304s-9.557 21.304-21.304 21.304-21.304-9.557-21.304-21.304 9.557-21.304 21.304-21.304zM53.28 254.258l6.296-14.175a8.001 8.001 0 0 0-.5-7.442 92.762 92.762 0 0 1-11.281-27.214 7.996 7.996 0 0 0-4.909-5.613l-14.463-5.567v-21.018l14.467-5.569a7.998 7.998 0 0 0 4.908-5.614 92.74 92.74 0 0 1 11.28-27.207 8.001 8.001 0 0 0 .5-7.442l-6.298-14.18 14.861-14.862 14.182 6.298a8 8 0 0 0 7.441-.5 92.755 92.755 0 0 1 27.206-11.279 8 8 0 0 0 5.613-4.909l5.569-14.468h21.018l5.569 14.468a8 8 0 0 0 5.613 4.909 92.804 92.804 0 0 1 27.207 11.279 7.997 7.997 0 0 0 7.441.499l14.181-6.298 14.862 14.862-6.296 14.175a8.001 8.001 0 0 0 .5 7.442 92.73 92.73 0 0 1 11.28 27.212 8 8 0 0 0 4.909 5.614l14.464 5.567v21.018l-14.468 5.569a7.996 7.996 0 0 0-4.909 5.614 92.788 92.788 0 0 1-11.279 27.207 8.002 8.002 0 0 0-.499 7.441l6.298 14.181-14.861 14.862-14.176-6.295a7.996 7.996 0 0 0-7.442.5 92.753 92.753 0 0 1-27.212 11.281 8 8 0 0 0-5.614 4.909l-5.567 14.463h-21.018l-5.569-14.468a8.002 8.002 0 0 0-5.613-4.909 92.787 92.787 0 0 1-27.206-11.279 8.002 8.002 0 0 0-7.441-.5l-14.182 6.298zm26.042 27.404 5.737-2.548a108.63 108.63 0 0 0 24.072 9.98l6.064 15.755a7.998 7.998 0 0 0 7.466 5.126h32.004c.381 0 .756-.034 1.126-.086l14.397 54.415H84.265zm-19.653 104.2a5.561 5.561 0 0 1 5.554-5.556h127.095a5.562 5.562 0 0 1 5.556 5.556v5.556H63.76c-1.377 0-2.738.068-4.091.166zm388.57 101.077H63.76c-21.924 0-39.76-17.836-39.76-39.761 0-21.924 17.836-39.76 39.76-39.76h384.479c21.924 0 39.761 17.836 39.761 39.761 0 21.923-17.837 39.76-39.761 39.76zM282.84 421.93a8 8 0 0 1-8 8h-37.68a8 8 0 0 1 0-16h37.68a8 8 0 0 1 8 8zm128.159 50.496a8 8 0 0 1-8 8h-37.68a8 8 0 0 1 0-16h37.68a8 8 0 0 1 8 8zM154.68 421.93a8 8 0 0 1-8 8H109a8 8 0 0 1 0-16h37.68a8 8 0 0 1 8 8zm256.319 0a8 8 0 0 1-8 8h-37.68a8 8 0 0 1 0-16h37.68a8 8 0 0 1 8 8zM282.84 472.426a8 8 0 0 1-8 8h-37.68a8 8 0 0 1 0-16h37.68a8 8 0 0 1 8 8zm-128.16 0a8 8 0 0 1-8 8H109a8 8 0 0 1 0-16h37.68a8 8 0 0 1 8 8zM63.76 413.93c-18.333 0-33.248 14.915-33.248 33.248s14.915 33.248 33.248 33.248c18.334 0 33.249-14.915 33.249-33.248S82.094 413.93 63.76 413.93zm0 50.497c-9.511 0-17.248-7.737-17.248-17.248s7.737-17.248 17.248-17.248 17.249 7.737 17.249 17.248-7.738 17.248-17.249 17.248zm128.16-50.497c-18.333 0-33.248 14.915-33.248 33.248s14.915 33.248 33.248 33.248 33.248-14.915 33.248-33.248-14.915-33.248-33.248-33.248zm0 50.497c-9.511 0-17.248-7.737-17.248-17.248s7.737-17.248 17.248-17.248 17.248 7.737 17.248 17.248-7.737 17.248-17.248 17.248zm128.16-50.497c-18.334 0-33.249 14.915-33.249 33.248s14.915 33.248 33.249 33.248c18.333 0 33.248-14.915 33.248-33.248s-14.915-33.248-33.248-33.248zm0 50.497c-9.511 0-17.249-7.737-17.249-17.248s7.738-17.248 17.249-17.248 17.248 7.737 17.248 17.248-7.737 17.248-17.248 17.248zm128.159-50.497c-18.333 0-33.248 14.915-33.248 33.248s14.915 33.248 33.248 33.248 33.248-14.915 33.248-33.248-14.915-33.248-33.248-33.248zm0 50.497c-9.511 0-17.248-7.737-17.248-17.248s7.737-17.248 17.248-17.248 17.248 7.737 17.248 17.248-7.737 17.248-17.248 17.248zM294.774 46.365c0-6.075 4.924-10.999 10.999-10.999 6.074 0 10.999 4.924 10.999 10.999s-4.924 10.999-10.999 10.999-10.999-4.924-10.999-10.999zM138.662 247.552c35.188 0 63.814-28.626 63.814-63.813 0-35.188-28.627-63.814-63.814-63.814s-63.813 28.627-63.813 63.814c0 35.186 28.627 63.813 63.813 63.813zm0-111.628c26.365 0 47.814 21.449 47.814 47.814 0 26.364-21.449 47.813-47.814 47.813-26.364 0-47.813-21.449-47.813-47.813 0-26.365 21.449-47.814 47.813-47.814z" fill="#b3da07" opacity="1" data-original="#000000"></path></g></svg>