<svg xmlns="http://www.w3.org/2000/svg" version="1.1" xmlns:xlink="http://www.w3.org/1999/xlink" width="512" height="512" x="0" y="0" viewBox="0 0 128 128" style="enable-background:new 0 0 512 512" xml:space="preserve"><g><path d="M80 68h46a2 2 0 0 0 0-4h-2v-8a2 2 0 0 0-2-2h-4v-8a2 2 0 0 0-2-2h-12a2 2 0 0 0-2 2v8h-4a2 2 0 0 0-2 2v8h-6V40h1a3.996 3.996 0 0 0 3.858-3H101a2 2 0 0 0 2-2v-8a2 2 0 0 0-2-2h-6.142A3.996 3.996 0 0 0 91 22h-1v-8a2 2 0 0 0-2-2h-8a2 2 0 0 0-2 2v8h-1a3.996 3.996 0 0 0-3.858 3H51a2 2 0 0 0-2 2v8a2 2 0 0 0 2 2h22.142A3.996 3.996 0 0 0 77 40h1v24H68a4.004 4.004 0 0 0-4 4v8a4.004 4.004 0 0 0 4 4h6.333v14.962l-.384.074a44.594 44.594 0 0 1-9.953.964 44.586 44.586 0 0 1-9.953-.964 74.979 74.979 0 0 0-2.643-.476l7.41-15.745a2 2 0 0 0-.835-2.597l-3.481-1.945L50.84 56.01A5.982 5.982 0 0 0 44.922 51H40v-6a2 2 0 0 0-2-2H26a2 2 0 0 0-2 2v6h-4.922a5.964 5.964 0 0 0-5.906 4.946L9.506 74.273l-3.481 1.945a2 2 0 0 0-.835 2.597l7.646 16.245-.124-.024A48.643 48.643 0 0 0 2 94a2 2 0 0 0 0 4 44.586 44.586 0 0 1 9.953.964A48.643 48.643 0 0 0 22.665 100a48.644 48.644 0 0 0 10.713-1.036A44.586 44.586 0 0 1 43.33 98a44.586 44.586 0 0 1 9.952.964A48.643 48.643 0 0 0 63.996 100a48.644 48.644 0 0 0 10.712-1.036A44.596 44.596 0 0 1 84.662 98a44.603 44.603 0 0 1 9.955.964A48.66 48.66 0 0 0 105.33 100a48.66 48.66 0 0 0 10.714-1.036A44.603 44.603 0 0 1 126 98a2 2 0 0 0 0-4 48.66 48.66 0 0 0-10.714 1.036 44.603 44.603 0 0 1-9.955.964 44.603 44.603 0 0 1-9.955-.964 47.456 47.456 0 0 0-7.043-.939V80H106a2 2 0 0 0 0-4H68v-8Zm40-10v6h-8v-6h8Zm-14-10h8v6h-8Zm-6 10h8v6h-8Zm-5-29h4v4h-4Zm-22 4H53v-4h20Zm13 31h-4V40h4Zm-4-48h4v6h-4Zm-5 20V26h14l.002 10ZM28 47h8v4h-8Zm-10.895 9.669A1.994 1.994 0 0 1 19.078 55h25.844a2.014 2.014 0 0 1 1.984 1.731l2.996 14.978-16.927-9.455a2.003 2.003 0 0 0-1.95 0l-16.927 9.455ZM30 95.507a46.028 46.028 0 0 1-7.335.493c-2.067 0-3.688-.082-5.066-.211l-4.269-9.07L30 77.407Zm2.975-23.253c-.022-.013-.047-.017-.07-.028a1.976 1.976 0 0 0-.328-.131c-.038-.012-.075-.027-.115-.036a1.84 1.84 0 0 0-.924 0c-.04.01-.076.024-.115.036a1.976 1.976 0 0 0-.328.13c-.023.012-.048.016-.07.029L11.623 83.09 9.604 78.8 32 66.29 54.396 78.8l-2.02 4.29Zm14.216 21.855a63.722 63.722 0 0 0-3.86-.109 48.12 48.12 0 0 0-9.331.775V77.408l16.67 9.31ZM78.333 80h6v14.002a53.875 53.875 0 0 0-6 .32ZM126 102a48.66 48.66 0 0 0-10.714 1.036 44.603 44.603 0 0 1-9.955.964 44.603 44.603 0 0 1-9.955-.964A48.66 48.66 0 0 0 84.662 102a48.65 48.65 0 0 0-10.713 1.036 44.594 44.594 0 0 1-9.953.964 44.586 44.586 0 0 1-9.953-.964A48.643 48.643 0 0 0 43.331 102a48.643 48.643 0 0 0-10.713 1.036 44.59 44.59 0 0 1-9.953.964 44.586 44.586 0 0 1-9.953-.964A48.643 48.643 0 0 0 2 102a2 2 0 0 0 0 4 44.586 44.586 0 0 1 9.953.964A48.643 48.643 0 0 0 22.665 108a48.644 48.644 0 0 0 10.713-1.036A44.586 44.586 0 0 1 43.33 106a44.586 44.586 0 0 1 9.952.964A48.643 48.643 0 0 0 63.996 108a48.644 48.644 0 0 0 10.712-1.036 44.596 44.596 0 0 1 9.954-.964 44.603 44.603 0 0 1 9.955.964A48.66 48.66 0 0 0 105.33 108a48.66 48.66 0 0 0 10.714-1.036A44.603 44.603 0 0 1 126 106a2 2 0 0 0 0-4ZM126 110a48.66 48.66 0 0 0-10.714 1.036 44.603 44.603 0 0 1-9.955.964 44.603 44.603 0 0 1-9.955-.964A48.66 48.66 0 0 0 84.662 110a48.65 48.65 0 0 0-10.713 1.036 44.594 44.594 0 0 1-9.953.964 44.586 44.586 0 0 1-9.953-.964A48.643 48.643 0 0 0 43.331 110a48.643 48.643 0 0 0-10.713 1.036 44.59 44.59 0 0 1-9.953.964 44.586 44.586 0 0 1-9.953-.964A48.643 48.643 0 0 0 2 110a2 2 0 0 0 0 4 44.586 44.586 0 0 1 9.953.964A48.643 48.643 0 0 0 22.665 116a48.644 48.644 0 0 0 10.713-1.036A44.586 44.586 0 0 1 43.33 114a44.586 44.586 0 0 1 9.952.964A48.643 48.643 0 0 0 63.996 116a48.644 48.644 0 0 0 10.712-1.036 44.596 44.596 0 0 1 9.954-.964 44.603 44.603 0 0 1 9.955.964A48.66 48.66 0 0 0 105.33 116a48.66 48.66 0 0 0 10.714-1.036A44.603 44.603 0 0 1 126 114a2 2 0 0 0 0-4Z" fill="#b3da07" opacity="1" data-original="#000000"></path></g></svg>