<svg xmlns="http://www.w3.org/2000/svg" version="1.1" xmlns:xlink="http://www.w3.org/1999/xlink" width="512" height="512" x="0" y="0" viewBox="0 0 60 60" style="enable-background:new 0 0 512 512" xml:space="preserve" class=""><g><g fill="#000" fill-rule="nonzero"><path d="M32.879 1.555 31.09.66A3 3 0 0 0 27.065 2l-.447.894a1.967 1.967 0 0 0-2 .136C21.566 1.656 8.906-3.388.748 3.583a1.962 1.962 0 0 0 1.026 3.511 47.11 47.11 0 0 1 18.384 4.882 1.994 1.994 0 0 0 1.092 1.652L5.789 44.54a4 4 0 1 0 7.155 3.578l15.461-30.911a1.97 1.97 0 0 0 1.978-.116 47.1 47.1 0 0 1 14.931 11.78 1.963 1.963 0 0 0 3.425-1.285C49.424 16.879 37.8 9.774 34.868 8.16a1.966 1.966 0 0 0-1.095-1.685l.448-.894a3 3 0 0 0-1.342-4.026zM28.854 2.9a1 1 0 0 1 1.346-.451l1.789.9a1 1 0 0 1 .447 1.342l-.448.893-3.581-1.794zM2.047 5.1C8.97-.813 20.216 3.327 23.469 4.72L20.8 10.064A49.215 49.215 0 0 0 2.047 5.1zm9.108 42.121a2 2 0 0 1-3.577-1.789l15.461-30.909 3.577 1.79zM29.3 15.418l-.894-.447-6.26-3.132 3.579-7.154 7.154 3.578-3.579 7.156zm17.443 12.041a49.226 49.226 0 0 0-15.214-12.027l2.671-5.345c3.068 1.765 13.126 8.272 12.543 17.372z" fill="#b3da07" opacity="1" data-original="#000000" class=""></path><path d="M58.684 10.052a7.927 7.927 0 0 0-4.387 4c-1.117.137-3.26.639-4.192 2.5a1 1 0 0 0 .062 1c2.286 4 2.618 8.825.9 13.1-.105.285-.076.602.078.864.251.426 2.34 4.233-1.656 6.631a.993.993 0 0 0-.446.583 4.752 4.752 0 0 1-2.5 2.828c-1.546.592-3.568.124-6.008-1.4A1 1 0 0 0 40 40c-.084 0-8.132.093-11.578 7.777a6 6 0 0 0-7.055 3.193c-2.336-.031-9.506.464-11.337 7.788A1 1 0 0 0 11 60h47a2 2 0 0 0 2-2V11a1 1 0 0 0-1.316-.948zM58 58H12.373c2.316-5.7 9.206-5.041 9.519-5.006a1 1 0 0 0 1.037-.623 4.215 4.215 0 0 1 5.7-2.442 1 1 0 0 0 1.309-.577 11.142 11.142 0 0 1 9.8-7.342c2.891 1.744 5.42 2.22 7.521 1.411a6.562 6.562 0 0 0 3.572-3.759c3.258-2.131 3.767-5.566 2.262-8.733a17.272 17.272 0 0 0-.909-13.894A4.535 4.535 0 0 1 55 16a1 1 0 0 0 .949-.684A5.354 5.354 0 0 1 58 12.662z" fill="#b3da07" opacity="1" data-original="#000000" class=""></path><path d="m50.857 48.441-1.905-.6a2 2 0 0 0-2.511 1.3l-.6 1.907a2 2 0 0 0 1.3 2.51c2.056.65 2.107.7 2.512.7a2 2 0 0 0 1.9-1.4l.6-1.907a2 2 0 0 0-1.296-2.51zm-1.2 3.814-1.907-.6.6-1.907 1.907.6zM38.049 50.887a2 2 0 0 0-2.51-1.3l-1.906.6a2 2 0 0 0-1.3 2.51l.6 1.906a2 2 0 0 0 2.511 1.3l1.907-.6a2 2 0 0 0 1.3-2.51zM34.838 54l-.6-1.906 1.907-.6.6 1.907zM42 46a1 1 0 0 0-1 1v1a1 1 0 0 0 2 0v-1a1 1 0 0 0-1-1zM25.293 53.293l-1 1a1 1 0 0 0 1.414 1.414l1-1a1 1 0 0 0-1.414-1.414zM54.707 42.293a1 1 0 0 0-1.414 1.414C54.353 44.768 54.48 45 55 45a1 1 0 0 0 .707-1.707zM33 33.784c0 3.095 2.017 4.984 5.312 3.9a3.672 3.672 0 0 0 2.48-1.96c.591-1.429-.2-2.989-.9-4.366C38.374 28.375 33 30.835 33 33.784zm5.944 1.18c-.265.639-2.381 1.425-3.237.8a2.456 2.456 0 0 1-.707-1.98c0-1.071 2.678-2.364 3.108-1.515.504.992 1.076 2.116.836 2.695z" fill="#b3da07" opacity="1" data-original="#000000" class=""></path></g></g></svg>