<svg xmlns="http://www.w3.org/2000/svg" version="1.1" xmlns:xlink="http://www.w3.org/1999/xlink" width="512" height="512" x="0" y="0" viewBox="0 0 512 512" style="enable-background:new 0 0 512 512" xml:space="preserve" class=""><g><path d="m511.667 344.808-10.855-46.435c-.943-4.033-4.979-6.543-9.01-5.596a7.499 7.499 0 0 0-5.596 9.01l10.146 43.402h-31.668v-13.087c0-3.688-1.134-7.221-3.279-10.218l-29.9-41.792a17.598 17.598 0 0 0-14.281-7.342h-42.385a17.507 17.507 0 0 0-14.705 7.962l-15.362 23.538v-77.645c6.222-.728 11.068-6.024 11.068-12.438v-21.956c0-6.909-5.621-12.53-12.53-12.53H171.945c-6.909 0-12.53 5.621-12.53 12.53v21.956c0 6.414 4.846 11.71 11.067 12.438v31.225h-27.189c-1.059 0-2.087.16-3.064.446a10.805 10.805 0 0 0-9.062-4.898h-28.51c-4.71 0-8.853 3.01-10.309 7.49l-5.75 17.695H82.07a10.813 10.813 0 0 0-10.309 7.49l-5.335 16.418h-5.86a12.962 12.962 0 0 0-10.431 5.197 12.96 12.96 0 0 0-2.132 11.459l7.446 26.062H15.814l26.875-94.063c1.525-5.338 6.468-9.066 12.019-9.066H67.77c5.205 0 9.923-3.277 11.742-8.155l23.579-63.293h42.255c4.142 0 7.5-3.357 7.5-7.5s-3.358-7.5-7.5-7.5h-36.667l4.843-12.999c1.813-4.866 6.52-8.136 11.713-8.136h46.076c5.019 0 9.539-2.98 11.517-7.594l25.141-58.661a12.485 12.485 0 0 1 11.489-7.576h90.023c5.49 0 10.417 3.675 11.982 8.938l3.745 12.596h-59.151c-4.142 0-7.5 3.357-7.5 7.5s3.358 7.5 7.5 7.5h63.61l9.679 32.557c1.568 5.275 6.507 8.96 12.01 8.96h32.781c5.269 0 10 3.334 11.772 8.296l15.162 42.454a12.555 12.555 0 0 0 11.8 8.315h29.109a12.45 12.45 0 0 1 12.172 9.654l14.094 60.29a7.5 7.5 0 1 0 14.606-3.414l-14.094-60.29c-2.924-12.506-13.936-21.24-26.778-21.24h-27.368l-14.577-40.814c-3.898-10.916-14.306-18.251-25.898-18.251h-30.938l-17.358-58.388c-3.442-11.577-14.282-19.662-26.36-19.662h-90.023a27.468 27.468 0 0 0-25.276 16.667l-24.499 57.164h-44.447c-11.425 0-21.781 7.193-25.77 17.899L66.054 227.06H54.708c-12.213 0-23.086 8.202-26.442 19.945L.491 344.217a12.424 12.424 0 0 0 2.043 10.987 12.43 12.43 0 0 0 10.004 4.985h47.198l4.34 15.19c-5.992 4.953-9.817 12.439-9.817 20.802 0 14.877 12.103 26.979 26.98 26.979 11.885 0 21.992-7.727 25.58-18.419h18.179c4.142 0 7.5-3.357 7.5-7.5s-3.358-7.5-7.5-7.5h-17.561c-2.896-11.777-13.54-20.541-26.197-20.541-1.107 0-2.197.075-3.27.205L63.131 317.47h151.538l-14.839 51.935a27.145 27.145 0 0 0-3.27-.205c-12.658 0-23.302 8.764-26.197 20.541h-10.366c-4.142 0-7.5 3.357-7.5 7.5s3.358 7.5 7.5 7.5h10.983c3.588 10.692 13.695 18.419 25.58 18.419 14.877 0 26.98-12.103 26.98-26.979 0-8.363-3.825-15.849-9.817-20.802l4.34-15.19h281.402a12.46 12.46 0 0 0 9.816-4.743 12.458 12.458 0 0 0 2.386-10.638zM81.24 384.202c6.606 0 11.98 5.374 11.98 11.98 0 6.605-5.374 11.979-11.98 11.979s-11.98-5.374-11.98-11.979c0-6.606 5.374-11.98 11.98-11.98zm115.321 23.96c-6.606 0-11.98-5.374-11.98-11.979 0-6.606 5.374-11.98 11.98-11.98s11.98 5.374 11.98 11.98c0 6.605-5.374 11.979-11.98 11.979zm-88.469-105.69H82.199l2.894-8.908h22.464l1.714 5.277zm10.809-20.015a10.808 10.808 0 0 0-8.321-3.893h-8.209l3.31-10.186h22.464l1.923 5.919-2.428 7.471h-4.946c-1.326 0-2.604.246-3.793.689zm4.963 20.015 1.853-5.704h22.464l1.853 5.704zm30.71-20.17a10.885 10.885 0 0 0-3.37-.534h-7.792l2.904-8.938h22.464l1.863 5.733h-7.876a10.815 10.815 0 0 0-8.193 3.739zm11.232 20.17-1.455-4.479 1.439-4.429h22.464l2.894 8.908zm36.692-13.61-.913-2.809a10.814 10.814 0 0 0-10.309-7.489h-4.862l-.933-2.871v-48.994h17.016v62.163zm95.258 38.886-9.016 17.442h-66.39l7.446-26.062a12.96 12.96 0 0 0-2.132-11.459c-2.438-3.231-6.133-5.102-10.166-5.182v-75.789h43.499c4.142 0 7.5-3.357 7.5-7.5s-3.358-7.5-7.5-7.5h-86.583v-17.017H340.84v17.017h-44.842c-4.142 0-7.5 3.357-7.5 7.5s3.358 7.5 7.5 7.5h1.758zm32.016-101.049v78.799h-9.825c-2.533 0-4.973.542-7.191 1.535V226.7h17.016zM449.683 345.19H305.625l12.048-23.309a2.55 2.55 0 0 1 2.273-1.384h25.349c4.248 0 8.17-2.124 10.493-5.681l16.907-25.904a2.547 2.547 0 0 1 2.143-1.161h42.385c.824 0 1.602.4 2.082 1.07l29.9 41.793c.313.437.478.951.478 1.488z" fill="#ffffff" opacity="1" data-original="#000000" class=""></path><path d="M193.709 337.685a7.5 7.5 0 0 0-7.5-7.5H91.592c-4.142 0-7.5 3.357-7.5 7.5s3.358 7.5 7.5 7.5h94.617a7.5 7.5 0 0 0 7.5-7.5zM111.264 371.462h55.272c4.142 0 7.5-3.357 7.5-7.5s-3.358-7.5-7.5-7.5h-55.272c-4.142 0-7.5 3.357-7.5 7.5s3.358 7.5 7.5 7.5zM350.096 402.414a7.5 7.5 0 0 0-7.5-7.5h-88.598c-4.142 0-7.5 3.357-7.5 7.5s3.358 7.5 7.5 7.5h88.598a7.5 7.5 0 0 0 7.5-7.5zM207.79 451.354H94.998c-4.142 0-7.5 3.357-7.5 7.5s3.358 7.5 7.5 7.5H207.79c4.142 0 7.5-3.357 7.5-7.5s-3.358-7.5-7.5-7.5zM63.998 451.354H24.596c-4.142 0-7.5 3.357-7.5 7.5s3.358 7.5 7.5 7.5h39.402c4.142 0 7.5-3.357 7.5-7.5s-3.358-7.5-7.5-7.5zM491.564 451.354H477.76l-15.716-30.892a13.12 13.12 0 0 0-4.191-4.807l-26.935-18.724a13.017 13.017 0 0 0-7.464-2.339h-34a13.084 13.084 0 0 0-11.43 6.725l-8.283 14.905-31.049 12.606a13.147 13.147 0 0 0-7.212 7.235l-6.149 15.289h-13.335c-4.142 0-7.5 3.357-7.5 7.5s3.358 7.5 7.5 7.5h179.567a7.5 7.5 0 0 0 .001-14.998zm-150.065 0 3.593-8.934 30.924-12.556a13.128 13.128 0 0 0 6.506-5.763l8.063-14.509h32.266l26.043 18.104 12.036 23.657H341.499zM203.69 115.375c-4.142 0-7.5 3.357-7.5 7.5s3.358 7.5 7.5 7.5h59.35c4.142 0 7.5-3.357 7.5-7.5s-3.358-7.5-7.5-7.5zM397.833 210.938c-4.142 0-7.5 3.357-7.5 7.5s3.358 7.5 7.5 7.5h33.195c4.142 0 7.5-3.357 7.5-7.5s-3.358-7.5-7.5-7.5zM116.175 225.021c-4.142 0-7.5 3.357-7.5 7.5s3.358 7.5 7.5 7.5h16.095c4.142 0 7.5-3.357 7.5-7.5s-3.358-7.5-7.5-7.5zM411.916 310.524H388.78c-4.142 0-7.5 3.357-7.5 7.5s3.358 7.5 7.5 7.5h23.136c4.142 0 7.5-3.357 7.5-7.5s-3.358-7.5-7.5-7.5z" fill="#ffffff" opacity="1" data-original="#000000" class=""></path><path d="M427.005 425.2h-22.13c-4.142 0-7.5 3.357-7.5 7.5s3.358 7.5 7.5 7.5h22.13c4.142 0 7.5-3.357 7.5-7.5s-3.358-7.5-7.5-7.5z" fill="#ffffff" opacity="1" data-original="#000000" class=""></path></g></svg>