<svg xmlns="http://www.w3.org/2000/svg" version="1.1" xmlns:xlink="http://www.w3.org/1999/xlink" width="512" height="512" x="0" y="0" viewBox="0 0 74 74" style="enable-background:new 0 0 512 512" xml:space="preserve" class=""><g><path d="M3 60h68v2H3z" fill="#b3da07" opacity="1" data-original="#000000" class=""></path><path d="M64 62H52a1 1 0 0 1-1-1v-4a1 1 0 0 1 1-1h12a1 1 0 0 1 1 1v4a1 1 0 0 1-1 1zm-11-2h10v-2H53z" fill="#b3da07" opacity="1" data-original="#000000" class=""></path><path d="M61 58h-6a1 1 0 0 1-1-1V47h2v9h4v-9h2v10a1 1 0 0 1-1 1zM62 43h-2V14h-4v29h-2V13a1 1 0 0 1 1-1h6a1 1 0 0 1 1 1zM22 62H10a1 1 0 0 1-1-1v-4a1 1 0 0 1 1-1h12a1 1 0 0 1 1 1v4a1 1 0 0 1-1 1zm-11-2h10v-2H11zM20 43h-2V14h-4v29h-2V13a1 1 0 0 1 1-1h6a1 1 0 0 1 1 1z" fill="#b3da07" opacity="1" data-original="#000000" class=""></path><path d="M19 58h-6a1 1 0 0 1-1-1V47h2v9h4v-9h2v10a1 1 0 0 1-1 1zM37 36c-16.72 0-18.975-22.68-19-22.91l2-.181C20.015 13.12 22.106 34 37 34s16.985-20.88 17-21.091l2 .181C55.975 13.32 53.72 36 37 36zM70.458 33.562c-9.024-5.823-10.4-19.876-10.453-20.472L62 12.909c.012.136 1.346 13.682 9.545 18.972zM3.542 33.562l-1.084-1.681c8.213-5.3 9.533-18.836 9.545-18.971l1.997.18c-.059.596-1.434 14.649-10.458 20.472z" fill="#b3da07" opacity="1" data-original="#000000" class=""></path><path d="M71 48H3a1 1 0 0 1-1-1v-4a1 1 0 0 1 1-1h68a1 1 0 0 1 1 1v4a1 1 0 0 1-1 1zM4 46h66v-2H4z" fill="#b3da07" opacity="1" data-original="#000000" class=""></path><path d="M48 29.01h2V43h-2zM42 33.8h2V43h-2zM36 35h2v8h-2zM30 33.8h2V43h-2zM24 29.01h2V43h-2z" fill="#b3da07" opacity="1" data-original="#000000" class=""></path></g></svg>