<svg xmlns="http://www.w3.org/2000/svg" version="1.1" xmlns:xlink="http://www.w3.org/1999/xlink" width="512" height="512" x="0" y="0" viewBox="0 0 512 512" style="enable-background:new 0 0 512 512" xml:space="preserve" class=""><g><path d="M155.58 416.21c-.17.06-.37.09-.57.11-4.05.82-7.43 3.2-9.61 6.38-7.74 11.28 2.01 26.45 15.56 23.92 4.2-.79 7.65-3.2 9.89-6.43 7.66-11.2-1.86-26.22-15.27-23.98zm-1.73-7.8c20.55-3.83 35.26 19.25 23.58 36.25-11.74 17.15-38.49 11.54-42.32-8.96-2.4-12.89 6.52-25.3 18.74-27.29zm-28.8 2.35c-9.21 19.5-5.56 36.51 3.91 47.62 7.43 8.73 18.57 14.03 29.96 13.78 13.38-.25 26.96-8.31 34.87-27.04l41.44-98.25c12.44-29.54 86.51-28.18 87.99-116.65.03-1.84-2.13-2.89-3.57-1.67L257.6 281.7a4.045 4.045 0 0 1-3.94.74l-47.74-16.87a3.984 3.984 0 0 1-2.64-3.23l-9.24-49.58c-.26-1.45.28-2.83 1.33-3.74l61.17-52.38c1.5-1.28.65-3.69-1.28-3.8-24.69-1.22-48.22 5.56-66.84 17.8-22 14.51-37.64 37.11-38.95 63.72-.85 16.7 3.97 34.89 16.19 53.43 5.41 8.25 8.9 18 4.42 27.55zm-2.15 52.81c-11.34-13.29-15.82-33.42-5.07-56.21l7.82-16.61a19.82 19.82 0 0 1-10.86-5.56l-21.23-21.2c-7.77-7.8-7.77-20.44 0-28.21l8.25-8.25c3.91-3.91 4.68-9.67 1.93-14.43-7.37-12.76-13.07-26.42-16.89-40.71-1.42-5.33-6.01-8.84-11.54-8.84H63.65c-11 0-19.96-8.96-19.96-19.93V213.6c0-11 8.96-19.96 19.96-19.96H75.3c5.53 0 10.12-3.52 11.54-8.84a167.85 167.85 0 0 1 16.89-40.71c2.78-4.82 1.98-10.37-1.9-14.43l-.03.03-8.25-8.28c-3.88-3.86-5.81-8.99-5.81-14.09 0-4.96 1.96-10.38 5.81-14.09L114.78 72c7.77-7.77 20.44-7.77 28.2 0l8.25 8.25c3.91 3.91 9.64 4.68 14.43 1.9a168.377 168.377 0 0 1 40.68-16.87c5.33-1.42 8.87-6.01 8.87-11.54V42.09c0-10.97 8.93-19.93 19.93-19.93h30.02c11 0 19.93 8.96 19.93 19.93v11.68c0 5.53 3.51 10.12 8.87 11.54 14.26 3.83 27.92 9.5 40.68 16.87 4.79 2.78 10.52 2.01 14.43-1.9l8.25-8.25c7.77-7.77 20.44-7.77 28.2 0l21.23 21.23c7.77 7.77 7.77 20.41 0 28.18l-8.28 8.28c-3.91 3.91-4.65 9.64-1.9 14.4 7.37 12.76 13.07 26.42 16.87 40.71 1.45 5.33 6.04 8.84 11.54 8.84h11.68c11 0 19.93 8.96 19.93 19.96v30.02c0 10.97-8.93 19.93-19.93 19.93v-.03h-11.68v.03c-5.5 0-10.09 3.52-11.54 8.84-3.8 14.29-9.5 27.95-16.87 40.71-2.75 4.76-2.01 10.49 1.93 14.43l8.25 8.25c3.88 3.88 5.81 8.99 5.81 14.09 0 5.13-1.96 10.23-5.81 14.12l-21.23 21.2c-7.77 7.77-20.44 7.77-28.2 0l-8.42-8.45c-3.54-3.69-9.58-4.39-14.26-1.7a168.876 168.876 0 0 1-40.68 16.87c-5.36 1.42-8.87 6.01-8.87 11.54v11.68c0 10.97-8.93 19.93-19.93 19.93h-30.02c-11.03 0-19.93-8.87-19.93-20.21l-14.09 33.36c-9.33 22.11-25.77 31.61-42.04 31.92-13.79.28-27.23-6.07-36.18-16.59zm6.4-80.53 28.37-60.09c-51.9-51.05-52.58-134.82-.79-186.6 51.31-51.34 134.53-51.34 185.84 0 51.31 51.31 51.31 134.5 0 185.84-26.84 26.84-64.49 41.44-104.46 37.98l-15.87 37.64c.2.65.34 1.3.48 1.96.6 3.23.34 11.71.34 15.36 0 6.55 5.36 11.93 11.93 11.93h30.02c6.58 0 11.93-5.39 11.93-11.93v-11.68c0-9.13 5.98-16.89 14.8-19.25 13.61-3.66 26.62-9.04 38.75-16.07 7.91-4.56 17.66-3.26 24.07 3.17l8.28 8.25c4.65 4.65 12.22 4.65 16.87 0l21.23-21.23c2.32-2.32 3.51-5.39 3.51-8.45h-.03c0-3.06-1.16-6.12-3.49-8.45l-8.25-8.25c-6.43-6.44-7.71-16.19-3.15-24.07 7-12.13 12.42-25.14 16.04-38.78 2.35-8.79 10.15-14.77 19.25-14.77h11.68c6.58 0 11.93-5.39 11.93-11.93V213.6c0-6.58-5.36-11.96-11.93-11.96h-11.68c-9.1 0-16.89-5.98-19.25-14.77a159.895 159.895 0 0 0-16.04-38.78c-4.56-7.88-3.29-17.63 3.15-24.07l8.25-8.25c4.65-4.65 4.65-12.25 0-16.89l-21.23-21.23c-4.65-4.65-12.22-4.65-16.87 0l-8.28 8.28c-6.43 6.43-16.16 7.71-24.07 3.15a160.4 160.4 0 0 0-38.75-16.07c-8.82-2.35-14.8-10.12-14.8-19.25V42.09c0-6.55-5.36-11.93-11.93-11.93h-30.02c-6.58 0-11.93 5.39-11.93 11.93h-.03v11.68h.03c0 9.13-5.98 16.89-14.8 19.25a160.8 160.8 0 0 0-38.75 16.07c-7.91 4.56-17.63 3.29-24.09-3.15l-8.25-8.28c-4.65-4.62-12.25-4.62-16.87 0L99.23 98.9h-.03c-2.3 2.32-3.46 5.39-3.46 8.45h-.03c0 3.06 1.16 6.12 3.51 8.45l8.25 8.25c6.43 6.46 7.71 16.19 3.15 24.07-7 12.13-12.42 25.14-16.04 38.78-2.35 8.79-10.15 14.77-19.28 14.77H63.65c-6.58 0-11.93 5.39-11.93 11.96v30.02c0 6.55 5.36 11.93 11.93 11.93H75.3c9.13 0 16.92 5.98 19.28 14.8 3.63 13.61 9.04 26.62 16.04 38.75 4.56 7.88 3.29 17.63-3.15 24.07l-8.25 8.25c-4.65 4.65-4.65 12.25 0 16.89l21.23 21.23c2.39 2.4 5.57 3.59 8.85 3.47zm31.98-67.77c2.18-4.56 3.71-7.23 2.47-12.81-.79-3.49-2.55-6.97-4.73-10.29-13.21-20.04-18.43-39.85-17.49-58.17 1.45-29.25 18.37-54.08 42.55-69.99 19.96-13.18 45.18-20.44 71.57-19.13 9.18.45 13.04 11.88 6.09 17.83l-59.41 50.88 8.42 45.24 43.43 15.31 60.29-51.65c6.6-5.64 16.89-.88 16.72 7.88-1.56 92.69-78.26 95.02-88.61 119.59l-1.05 2.44c71.26 4.71 131.7-51.7 131.7-123.14 0-68.17-55.28-123.42-123.42-123.42-68.17 0-123.42 55.25-123.42 123.42-.01 32.57 12.61 63.1 34.89 86.01z" fill="#ffffff" opacity="1" data-original="#000000" class=""></path></g></svg>