<svg width="41" height="39" viewBox="0 0 41 39" fill="none" xmlns="http://www.w3.org/2000/svg">
<g filter="url(#filter0_d_46_2874)">
<path d="M30.2083 16.9583H36.375" stroke="#0B7891" stroke-width="2.3125" stroke-linecap="round" stroke-linejoin="round"/>
</g>
<g filter="url(#filter1_d_46_2874)">
<path d="M33.2917 13.875L33.2917 20.0417" stroke="#0B7891" stroke-width="2.3125" stroke-linecap="round" stroke-linejoin="round"/>
</g>
<circle cx="7.10101" cy="7.10101" r="7.10101" transform="matrix(-1 0 0 1 26.5176 3.08334)" fill="#0B7891"/>
<g filter="url(#filter2_bdi_46_2874)">
<path d="M6.98981 26.046C6.98981 24.5186 7.94996 23.1561 9.38834 22.6424V22.6424C15.8732 20.3264 22.9599 20.3264 29.4448 22.6424V22.6424C30.8832 23.1561 31.8433 24.5186 31.8433 26.046V28.8202C31.8433 30.6966 30.1815 32.1379 28.324 31.8725L25.3032 31.441C21.3986 30.8832 17.4345 30.8832 13.5299 31.441L10.5092 31.8725C8.65169 32.1379 6.98981 30.6966 6.98981 28.8202V26.046Z" fill="#B7E2EF"/>
<path d="M31.6506 26.046V28.8202C31.6506 30.5793 30.0926 31.9305 28.3512 31.6818L25.3305 31.2502C21.4078 30.6898 17.4254 30.6898 13.5027 31.2502L10.4819 31.6818C8.74053 31.9305 7.18252 30.5793 7.18252 28.8202V26.046C7.18252 24.6 8.09147 23.3102 9.45315 22.8239C15.8961 20.5228 22.937 20.5228 29.38 22.8239C30.7417 23.3102 31.6506 24.6 31.6506 26.046Z" stroke="url(#paint0_linear_46_2874)" stroke-opacity="0.7" stroke-width="0.385417"/>
</g>
<defs>
<filter id="filter0_d_46_2874" x="25.9687" y="12.7188" width="14.6459" height="8.47917" filterUnits="userSpaceOnUse" color-interpolation-filters="sRGB">
<feFlood flood-opacity="0" result="BackgroundImageFix"/>
<feColorMatrix in="SourceAlpha" type="matrix" values="0 0 0 0 0 0 0 0 0 0 0 0 0 0 0 0 0 0 127 0" result="hardAlpha"/>
<feOffset/>
<feGaussianBlur stdDeviation="1.54167"/>
<feComposite in2="hardAlpha" operator="out"/>
<feColorMatrix type="matrix" values="0 0 0 0 0.231373 0 0 0 0 0.407843 0 0 0 0 1 0 0 0 0.35 0"/>
<feBlend mode="normal" in2="BackgroundImageFix" result="effect1_dropShadow_46_2874"/>
<feBlend mode="normal" in="SourceGraphic" in2="effect1_dropShadow_46_2874" result="shape"/>
</filter>
<filter id="filter1_d_46_2874" x="29.0521" y="9.63542" width="8.47917" height="14.6458" filterUnits="userSpaceOnUse" color-interpolation-filters="sRGB">
<feFlood flood-opacity="0" result="BackgroundImageFix"/>
<feColorMatrix in="SourceAlpha" type="matrix" values="0 0 0 0 0 0 0 0 0 0 0 0 0 0 0 0 0 0 127 0" result="hardAlpha"/>
<feOffset/>
<feGaussianBlur stdDeviation="1.54167"/>
<feComposite in2="hardAlpha" operator="out"/>
<feColorMatrix type="matrix" values="0 0 0 0 0.231373 0 0 0 0 0.407843 0 0 0 0 1 0 0 0 0.35 0"/>
<feBlend mode="normal" in2="BackgroundImageFix" result="effect1_dropShadow_46_2874"/>
<feBlend mode="normal" in="SourceGraphic" in2="effect1_dropShadow_46_2874" result="shape"/>
</filter>
<filter id="filter2_bdi_46_2874" x="0.823141" y="14.7387" width="37.1868" height="23.3321" filterUnits="userSpaceOnUse" color-interpolation-filters="sRGB">
<feFlood flood-opacity="0" result="BackgroundImageFix"/>
<feGaussianBlur in="BackgroundImageFix" stdDeviation="1.54167"/>
<feComposite in2="SourceAlpha" operator="in" result="effect1_backgroundBlur_46_2874"/>
<feColorMatrix in="SourceAlpha" type="matrix" values="0 0 0 0 0 0 0 0 0 0 0 0 0 0 0 0 0 0 127 0" result="hardAlpha"/>
<feOffset/>
<feGaussianBlur stdDeviation="3.08333"/>
<feComposite in2="hardAlpha" operator="out"/>
<feColorMatrix type="matrix" values="0 0 0 0 0.231373 0 0 0 0 0.407843 0 0 0 0 1 0 0 0 0.1 0"/>
<feBlend mode="normal" in2="effect1_backgroundBlur_46_2874" result="effect2_dropShadow_46_2874"/>
<feBlend mode="normal" in="SourceGraphic" in2="effect2_dropShadow_46_2874" result="shape"/>
<feColorMatrix in="SourceAlpha" type="matrix" values="0 0 0 0 0 0 0 0 0 0 0 0 0 0 0 0 0 0 127 0" result="hardAlpha"/>
<feOffset/>
<feGaussianBlur stdDeviation="2.3125"/>
<feComposite in2="hardAlpha" operator="arithmetic" k2="-1" k3="1"/>
<feColorMatrix type="matrix" values="0 0 0 0 0.231373 0 0 0 0 0.407843 0 0 0 0 1 0 0 0 0.38 0"/>
<feBlend mode="normal" in2="shape" result="effect3_innerShadow_46_2874"/>
</filter>
<linearGradient id="paint0_linear_46_2874" x1="7.61115" y1="21.0581" x2="18.2078" y2="38.0127" gradientUnits="userSpaceOnUse">
<stop stop-color="white" stop-opacity="0.15"/>
<stop offset="1" stop-color="white" stop-opacity="0.44"/>
</linearGradient>
</defs>
</svg>
