<svg xmlns="http://www.w3.org/2000/svg" version="1.1" xmlns:xlink="http://www.w3.org/1999/xlink" width="512" height="512" x="0" y="0" viewBox="0 0 512 512" style="enable-background:new 0 0 512 512" xml:space="preserve" fill-rule="evenodd" class=""><g><path d="M358.36 241.38H153.65c-13.1 0-23.76-10.66-23.76-23.76s10.66-23.76 23.76-23.76h204.71c13.1 0 23.76 10.66 23.76 23.76s-10.66 23.76-23.76 23.76zm-204.71-35.53c-6.49 0-11.77 5.28-11.77 11.77s5.28 11.76 11.77 11.76h204.71c6.48 0 11.76-5.27 11.76-11.76s-5.28-11.77-11.76-11.77z" fill="#b3da07" opacity="1" data-original="#000000" class=""></path><path d="M232.98 410.99c-1.11 0-2.22-.31-3.19-.92a5.973 5.973 0 0 1-2.81-5.07v-86.2l-79.18-79.18c-1.72-1.71-2.23-4.29-1.3-6.53s3.12-3.71 5.54-3.71h207.92c2.43 0 4.61 1.47 5.54 3.71s.42 4.82-1.3 6.53l-79.18 79.18v64c0 2.3-1.31 4.4-3.39 5.4l-46.05 22.2c-.83.4-1.72.59-2.6.59zm-66.46-169.61 70.7 70.7a6.002 6.002 0 0 1 1.75 4.24v79.13l34.06-16.42v-62.71c0-1.59.63-3.12 1.76-4.24l70.69-70.7zM102.04 450.9H89.13c-5.45 0-9.9-4.25-10.35-9.89l-1.29-15.94a70.773 70.773 0 0 1-18.34-7.61l-12.19 10.37c-2.01 1.71-4.53 2.66-7.1 2.66-2.73 0-5.29-1.06-7.22-2.99l-9.13-9.12c-3.85-3.86-3.99-10.02-.32-14.32l10.37-12.19a71.122 71.122 0 0 1-7.61-18.34l-15.94-1.29c-5.64-.45-9.89-4.9-9.89-10.35v-12.91c0-5.45 4.25-9.91 9.89-10.36l15.94-1.28c1.67-6.45 4.21-12.6 7.61-18.35l-10.37-12.18c-3.67-4.31-3.53-10.47.33-14.32l9.13-9.13c1.92-1.92 4.48-2.98 7.21-2.98 2.57 0 5.09.94 7.1 2.66l12.19 10.36a70.668 70.668 0 0 1 18.35-7.6l1.28-15.94c.45-5.64 4.9-9.9 10.35-9.9h12.92c5.45 0 9.9 4.26 10.35 9.9l1.28 15.94c6.45 1.67 12.6 4.21 18.35 7.61l12.18-10.38c2.01-1.71 4.54-2.65 7.11-2.65 2.73 0 5.29 1.06 7.21 2.98l9.13 9.13c3.85 3.85 3.99 10.01.33 14.32l-10.38 12.18c3.4 5.76 5.94 11.9 7.61 18.35l15.94 1.28c5.64.46 9.9 4.91 9.9 10.36v12.91c0 5.45-4.26 9.9-9.89 10.35l-15.95 1.28a70.668 70.668 0 0 1-7.6 18.35l10.37 12.19c3.66 4.3 3.52 10.46-.33 14.31l-9.13 9.13c-1.92 1.93-4.49 2.98-7.21 2.98-2.57 0-5.1-.94-7.11-2.65l-12.18-10.37a70.955 70.955 0 0 1-18.35 7.6L112.4 441c-.46 5.65-4.91 9.9-10.36 9.9zm-11.4-11.99h9.89l1.55-19.21c.21-2.68 2.2-4.9 4.85-5.41 8-1.53 15.48-4.63 22.26-9.22a6.009 6.009 0 0 1 7.25.39l14.68 12.5 6.99-7-12.49-14.67a6.01 6.01 0 0 1-.4-7.26 59.18 59.18 0 0 0 9.23-22.26 6.002 6.002 0 0 1 5.41-4.85l19.2-1.54v-9.9l-19.2-1.54c-2.69-.21-4.9-2.2-5.41-4.85-1.53-8-4.64-15.49-9.23-22.26a5.995 5.995 0 0 1 .4-7.25l12.49-14.68-6.99-6.99-14.68 12.49a5.98 5.98 0 0 1-7.25.39 59.478 59.478 0 0 0-22.26-9.23 5.982 5.982 0 0 1-4.85-5.41l-1.55-19.19-9.89-.01-1.54 19.2a5.993 5.993 0 0 1-4.85 5.41c-8.01 1.53-15.5 4.64-22.27 9.23a5.994 5.994 0 0 1-7.25-.39l-14.67-12.49-7 7 12.49 14.67a5.995 5.995 0 0 1 .4 7.25c-4.59 6.77-7.7 14.26-9.23 22.26a5.992 5.992 0 0 1-5.41 4.85l-19.2 1.54v9.9l19.2 1.54c2.69.22 4.91 2.2 5.42 4.85 1.53 8 4.63 15.49 9.22 22.26a6.01 6.01 0 0 1-.39 7.26l-12.5 14.67 7 7 14.67-12.49a5.995 5.995 0 0 1 7.26-.4 59.18 59.18 0 0 0 22.26 9.23c2.65.51 4.63 2.72 4.85 5.41z" fill="#b3da07" opacity="1" data-original="#000000" class=""></path><path d="M95.59 393.34c-20.91 0-37.91-17.01-37.91-37.91s17.01-37.91 37.91-37.91 37.91 17.01 37.91 37.91-17.01 37.91-37.91 37.91zm0-63.82c-14.29 0-25.92 11.62-25.92 25.91s11.63 25.92 25.92 25.92 25.91-11.63 25.91-25.92-11.62-25.91-25.91-25.91zM422.87 450.9h-12.91c-5.45 0-9.9-4.25-10.36-9.89l-1.28-15.94a70.983 70.983 0 0 1-18.35-7.61l-12.18 10.37c-2.01 1.71-4.53 2.66-7.1 2.66-2.73 0-5.29-1.06-7.21-2.98l-9.14-9.13c-3.85-3.86-3.99-10.02-.32-14.32l10.37-12.19a71.122 71.122 0 0 1-7.61-18.34l-15.94-1.29c-5.64-.45-9.89-4.9-9.89-10.35v-12.91c0-5.45 4.25-9.91 9.89-10.36l15.94-1.28c1.67-6.45 4.22-12.6 7.61-18.35l-10.37-12.18c-3.67-4.31-3.53-10.47.33-14.32l9.12-9.13c1.93-1.92 4.49-2.98 7.22-2.98 2.57 0 5.09.94 7.1 2.65l12.18 10.37c5.76-3.39 11.9-5.94 18.36-7.6l1.28-15.94c.45-5.64 4.9-9.9 10.35-9.9h12.91c5.45 0 9.9 4.26 10.36 9.9l1.28 15.94c6.45 1.67 12.6 4.21 18.35 7.61l12.18-10.38c2.01-1.71 4.54-2.65 7.1-2.65 2.73 0 5.3 1.06 7.22 2.98l9.13 9.13c3.85 3.85 3.99 10.01.33 14.32l-10.38 12.18c3.4 5.76 5.94 11.9 7.61 18.35l15.94 1.28c5.64.46 9.89 4.91 9.89 10.36v12.91c.01 5.45-4.25 9.9-9.89 10.35l-15.94 1.28a70.695 70.695 0 0 1-7.61 18.35l10.37 12.19c3.67 4.31 3.53 10.46-.32 14.31l-9.13 9.13a10.126 10.126 0 0 1-7.22 2.98c-2.57 0-5.09-.94-7.1-2.65l-12.19-10.37a70.746 70.746 0 0 1-18.34 7.6l-1.28 15.95c-.46 5.64-4.91 9.89-10.36 9.89zm-11.4-11.99h9.89l1.54-19.21c.22-2.68 2.2-4.9 4.86-5.41 7.99-1.53 15.48-4.63 22.26-9.22a5.995 5.995 0 0 1 7.25.39l14.67 12.5 7-7-12.49-14.67a6.01 6.01 0 0 1-.4-7.26c4.6-6.76 7.7-14.25 9.23-22.26a6.002 6.002 0 0 1 5.41-4.85l19.2-1.54v-9.9l-19.2-1.54c-2.69-.21-4.9-2.2-5.41-4.85-1.53-8-4.64-15.49-9.23-22.26a5.995 5.995 0 0 1 .4-7.25l12.49-14.68-7-6.99-14.67 12.49a5.98 5.98 0 0 1-7.25.39 59.478 59.478 0 0 0-22.26-9.23 5.982 5.982 0 0 1-4.85-5.41l-1.55-19.2h-9.89l-1.54 19.2a5.993 5.993 0 0 1-4.85 5.41c-8.01 1.53-15.5 4.64-22.27 9.23a5.994 5.994 0 0 1-7.25-.39l-14.67-12.5-7 7 12.49 14.67a6.01 6.01 0 0 1 .4 7.26 59.247 59.247 0 0 0-9.23 22.26 5.992 5.992 0 0 1-5.41 4.85l-19.2 1.54v9.9l19.2 1.54c2.69.22 4.9 2.2 5.41 4.85 1.54 8 4.64 15.49 9.23 22.26a5.98 5.98 0 0 1-.4 7.25l-12.49 14.68 7 6.99 14.67-12.49a6.009 6.009 0 0 1 7.26-.39 59.343 59.343 0 0 0 22.26 9.23c2.64.5 4.63 2.72 4.85 5.41z" fill="#b3da07" opacity="1" data-original="#000000" class=""></path><path d="M416.42 393.34c-20.91 0-37.91-17.01-37.91-37.91s17-37.91 37.91-37.91c20.9 0 37.9 17.01 37.9 37.91s-17 37.91-37.9 37.91zm0-63.82c-14.29 0-25.92 11.62-25.92 25.91s11.63 25.92 25.92 25.92c14.28 0 25.91-11.63 25.91-25.92s-11.63-25.91-25.91-25.91zM80.39 227.97c-3.31 0-6-2.68-6-5.99 0-42.46 34.54-76.99 76.99-76.99 3.31 0 6 2.68 6 6 0 3.31-2.69 5.99-6 5.99-35.84 0-65 29.16-65 65 0 3.31-2.68 5.99-5.99 5.99zM431.62 227.97c-3.32 0-6-2.68-6-5.99 0-35.84-29.16-65-65-65-3.31 0-5.99-2.68-5.99-5.99 0-3.32 2.68-6 5.99-6 42.46 0 76.99 34.54 76.99 76.99 0 3.31-2.68 5.99-5.99 5.99zM207.43 88.85c-3.31 0-6-2.69-6-6V67.09c0-3.31 2.69-5.99 6-5.99s6 2.68 6 5.99v15.76c0 3.31-2.69 6-6 6zM207.43 129.89c-3.31 0-6-2.69-6-6v-15.76c0-3.31 2.69-5.99 6-5.99s6 2.68 6 5.99v15.76c0 3.31-2.69 6-6 6zM207.43 170.92c-3.31 0-6-2.68-6-5.99v-15.76c0-3.31 2.69-6 6-6s6 2.69 6 6v15.76c0 3.31-2.69 5.99-6 5.99zM256 88.85c-3.31 0-6-2.69-6-6V67.09c0-3.31 2.69-5.99 6-5.99s6 2.68 6 5.99v15.76c0 3.31-2.69 6-6 6zM256 129.89c-3.31 0-6-2.69-6-6v-15.76c0-3.31 2.69-5.99 6-5.99s6 2.68 6 5.99v15.76c0 3.31-2.69 6-6 6zM256 170.92c-3.31 0-6-2.68-6-5.99v-15.76c0-3.31 2.69-6 6-6s6 2.69 6 6v15.76c0 3.31-2.69 5.99-6 5.99zM304.57 88.85c-3.31 0-5.99-2.69-5.99-6V67.09c0-3.31 2.68-5.99 5.99-5.99 3.32 0 6 2.68 6 5.99v15.76c0 3.31-2.69 6-6 6zM304.57 129.89c-3.31 0-5.99-2.69-5.99-6v-15.76c0-3.31 2.68-5.99 5.99-5.99 3.32 0 6 2.68 6 5.99v15.76c0 3.31-2.69 6-6 6zM304.57 170.92c-3.31 0-5.99-2.68-5.99-5.99v-15.76c0-3.31 2.68-6 5.99-6 3.32 0 6 2.69 6 6v15.76c0 3.31-2.69 5.99-6 5.99z" fill="#b3da07" opacity="1" data-original="#000000" class=""></path></g></svg>