<svg xmlns="http://www.w3.org/2000/svg" version="1.1" xmlns:xlink="http://www.w3.org/1999/xlink" width="512" height="512" x="0" y="0" viewBox="0 0 512 512" style="enable-background:new 0 0 512 512" xml:space="preserve" class=""><g><path d="M451.449 168.599A19.96 19.96 0 0 0 433.797 158h-56.81c-4.743-26.675-28.087-47-56.104-47s-51.361 20.325-56.104 47h-57.555a43.734 43.734 0 0 0 7.15-24c0-24.262-19.738-44-44-44s-44 19.738-44 44c0 8.85 2.636 17.092 7.15 24H86.598a19.96 19.96 0 0 0-17.652 10.599 19.963 19.963 0 0 0 1.056 20.562l134.196 199.556V502a9.997 9.997 0 0 0 10.001 10 9.992 9.992 0 0 0 3.992-.832l92-40.063a10 10 0 0 0 6.007-9.168v-73.221L450.393 189.16a19.96 19.96 0 0 0 1.056-20.561zM320.883 131c16.937 0 31.241 11.443 35.616 27h-71.231c4.374-15.557 18.679-27 35.615-27zm-150.508-21c13.233 0 24 10.767 24 24s-10.767 24-24 24-24-10.767-24-24 10.767-24 24-24zm127.524 270.086a10 10 0 0 0-1.702 5.58v69.719l-72 31.353v-91.072h36.127c5.523 0 10-4.477 10-10s-4.477-10-10-10h-40.801L118.88 226h202.003c5.523 0 10-4.477 10-10s-4.477-10-10-10H105.431l-18.829-28h347.194L297.899 380.086zM294.324 0c-24.262 0-44 19.738-44 44s19.739 44 44 44c24.262 0 44-19.738 44-44s-19.738-44-44-44zm0 68c-13.233 0-24-10.767-24-24s10.767-24 24-24 24 10.767 24 24-10.767 24-24 24zM401.197 48.333c-5.523 0-10 4.477-10 10v56.834c0 5.524 4.477 10.001 10 10.001s10-4.477 10-10V58.333c0-5.523-4.477-10-10-10zM408.267 18.43c-1.86-1.86-4.44-2.93-7.07-2.93s-5.21 1.07-7.07 2.93-2.93 4.44-2.93 7.07 1.07 5.21 2.93 7.07 4.44 2.93 7.07 2.93 5.21-1.07 7.07-2.93c1.86-1.86 2.93-4.44 2.93-7.07s-1.07-5.21-2.93-7.07zM204.375 12.755c-5.523 0-10 4.477-10 10v41c0 5.523 4.477 10 10 10s10-4.477 10-10v-41c0-5.523-4.477-10-10-10zM68.197 0c-5.523 0-10 4.477-10 10v65.168c0 5.523 4.477 10 10 10s10-4.477 10-10V10c0-5.523-4.477-10-10-10zM75.267 105.6c-1.86-1.87-4.44-2.93-7.07-2.93s-5.21 1.06-7.07 2.93a10.058 10.058 0 0 0-2.93 7.07c0 2.63 1.07 5.21 2.93 7.07s4.44 2.93 7.07 2.93 5.21-1.07 7.07-2.93c1.86-1.86 2.93-4.44 2.93-7.07 0-2.64-1.07-5.21-2.93-7.07z" fill="#ffffff" opacity="1" data-original="#000000"></path><path d="M372.417 208.93a10.076 10.076 0 0 0-7.07-2.93c-2.64 0-5.22 1.07-7.07 2.93-1.87 1.86-2.93 4.44-2.93 7.07s1.06 5.21 2.93 7.07c1.86 1.86 4.43 2.93 7.07 2.93 2.63 0 5.2-1.07 7.07-2.93 1.86-1.86 2.93-4.44 2.93-7.07s-1.07-5.21-2.93-7.07z" fill="#ffffff" opacity="1" data-original="#000000"></path></g></svg>