<svg xmlns="http://www.w3.org/2000/svg" version="1.1" xmlns:xlink="http://www.w3.org/1999/xlink" width="512" height="512" x="0" y="0" viewBox="0 0 494.406 494.406" style="enable-background:new 0 0 512 512" xml:space="preserve" class=""><g><path d="M144.203 368.469h-15v-15h15zm-30 0h-15v-15h15zm-30 0h-15v-15h15z" fill="#f8931f" opacity="1" data-original="#000000"></path><path d="M464.578 479.406v-82.031h-15v22.031H314.641v-82.938h134.937v45.938h15v-90.242c9.308-9.478 15.063-22.456 15.063-36.758v-15.923l-31.644-126.577h-74.179c-3.743-32.976-20.15-63.166-46.297-84.415l-9.46 11.641c26.424 21.474 41.58 53.296 41.58 87.305 0 43.062-24.338 80.541-59.976 99.422l.007-59.387c18.931-3.241 30.001-19.121 30.001-43.874 0-31.402-16.472-56-37.5-56s-37.5 24.598-37.5 56c0 24.752 11.069 40.632 29.999 43.873l-.007 65.978a111.923 111.923 0 0 1-37.461 6.425c-13.147 0-25.77-2.276-37.506-6.441l.034-75.529h2.503c15.164 0 27.5-12.336 27.5-27.5V75.38h-15v22.463h-15V75.405h-15v22.438h-15V75.38h-15v55.025c0 15.164 12.336 27.5 27.5 27.5h2.497l-.031 68.932c-35.616-18.889-59.934-56.355-59.934-99.4C134.766 65.439 185.205 15 247.203 15c21.06 0 41.589 5.855 59.369 16.933l7.932-12.731C294.342 6.64 271.07 0 247.203 0c-65.356 0-119.368 49.455-126.604 112.906H46.285L14.641 239.483v15.923c0 14.302 5.755 27.28 15.062 36.758v187.242H7.266v15h479.875v-15zm.063-224c0 20.678-16.822 37.5-37.5 37.5s-37.5-16.822-37.5-37.5h-.183l-.817-7.469h76zm-28.356-127.5 26.258 105.031h-75.544l-11.493-105.031zm-70.746 46.818 6.37 58.213h-53.297c20.913-14.2 37.398-34.45 46.927-58.213zm8.012 73.213 1.036 9.466c-1.042 19.753-17.438 35.503-37.446 35.503-20.272 0-36.827-16.171-37.469-36.289l-.004-8.679h73.883zM269.672 123.599c0-19.393 9.24-41 22.5-41s22.5 21.607 22.5 41c0 19.575-7.57 29.5-22.5 29.5s-22.5-9.926-22.5-29.5zm-22.469 131.276c13.033 0 25.614-1.971 37.465-5.623l.003 6.154h-.03c0 20.678-16.822 37.5-37.5 37.5-19.921 0-36.338-15.534-37.438-35.387l-.004-8.278a127.043 127.043 0 0 0 37.504 5.634zm-54.969-111.97c-6.893 0-12.5-5.607-12.5-12.5v-17.563h45v17.563c0 6.893-5.607 12.5-12.5 12.5zm9.969 139.69c9.22 15.22 25.942 25.312 44.938 25.312 19.074 0 35.805-10.226 45-25.481 9.195 15.255 25.926 25.481 45 25.481s35.805-10.226 45-25.481c9.195 15.255 25.926 25.481 45 25.481a52.16 52.16 0 0 0 22.437-5.048v18.61H44.703v-18.61a52.182 52.182 0 0 0 22.438 5.048c19.118 0 35.881-10.271 45.062-25.585 9.181 15.314 25.945 25.585 45.063 25.585 18.995-.001 35.717-10.092 44.937-25.312zm-82.437-27.899.751-6.759h36.749v-15h-35.082l6.514-58.627c12.197 30.728 36.013 55.625 65.999 69.239l.006 13.973c-1.101 19.852-17.517 35.384-37.437 35.384-20.678 0-37.5-16.822-37.5-37.5zm-61.769-126.79h60.765l-11.67 105.031H31.739zm-28.356 127.5v-7.469h75v7.469c0 20.678-16.822 37.5-37.5 37.5s-37.5-16.822-37.5-37.5zm150.062 224h-135v-45h135zm0-60h-135v-82.938h135zm119.875 60H194.703V336.468h104.875zm150 0h-135v-45h135z" fill="#f8931f" opacity="1" data-original="#000000"></path><path d="M224.641 389.437h15v30h-15zM254.641 389.437h15v30h-15z" fill="#f8931f" opacity="1" data-original="#000000"></path></g></svg>