<svg xmlns="http://www.w3.org/2000/svg" version="1.1" xmlns:xlink="http://www.w3.org/1999/xlink" width="512" height="512" x="0" y="0" viewBox="0 0 512 512" style="enable-background:new 0 0 512 512" xml:space="preserve" class=""><g><path d="M478.914 312.195a7.5 7.5 0 0 0-7.5 7.5v119.57H316.82v-141.94c0-9.653-7.851-17.505-17.5-17.505h-86.64c-9.649 0-17.5 7.856-17.5 17.504v141.942H40.586v-119.57a7.5 7.5 0 0 0-7.5-7.5 7.5 7.5 0 0 0-7.5 7.5v123.07c0 6.34 5.16 11.5 11.5 11.5h437.828c6.34 0 11.5-5.16 11.5-11.5v-123.07a7.5 7.5 0 0 0-7.5-7.5zM210.18 439.265v-141.94a2.506 2.506 0 0 1 2.5-2.505h86.64c1.38 0 2.5 1.125 2.5 2.504v141.942zm0 0" fill="#b3da07" opacity="1" data-original="#000000" class=""></path><path d="M443.285 409.633c8.805 0 15.969-7.164 15.969-15.969V311.82c0-8.804-7.164-15.965-15.969-15.965H350.47c-8.805 0-15.969 7.16-15.969 15.965v81.844c0 8.805 7.164 15.969 15.969 15.969zM349.5 393.664V311.82c0-.53.434-.965.969-.965h92.816c.535 0 .969.434.969.965v81.844a.969.969 0 0 1-.969.969H350.47a.969.969 0 0 1-.969-.969zM161.531 409.633c8.805 0 15.969-7.164 15.969-15.969V311.82c0-8.804-7.164-15.965-15.969-15.965H68.715c-8.805 0-15.969 7.16-15.969 15.965v81.844c0 8.805 7.164 15.969 15.969 15.969zm-93.785-15.969V311.82c0-.53.434-.965.969-.965h92.816c.535 0 .969.434.969.965v81.844a.969.969 0 0 1-.969.969H68.715a.969.969 0 0 1-.969-.969zm0 0" fill="#b3da07" opacity="1" data-original="#000000" class=""></path><path d="M489.96 110.57c0-8.011 6.52-14.527 14.54-14.527a7.5 7.5 0 0 0 7.5-7.5V70.191a7.5 7.5 0 0 0-7.5-7.5H380.691a7.5 7.5 0 0 0-7.5 7.5c0 4.145 3.356 7.5 7.5 7.5H497v4.317c-10.27 2.695-18.375 10.797-21.074 21.062H357.938V36.492C357.938 16.372 341.565 0 321.445 0H190.56c-20.125 0-36.493 16.371-36.493 36.492v26.2H7.5a7.5 7.5 0 0 0-7.5 7.5v18.351a7.5 7.5 0 0 0 7.5 7.5c8.02 0 14.54 6.516 14.54 14.527a7.5 7.5 0 0 0 3.581 6.399v51.226H12.125c-6.344 0-11.504 5.16-11.504 11.5v40.84c0 6.34 5.16 11.5 11.504 11.5h13.496v57.715a7.5 7.5 0 0 0 7.5 7.5 7.5 7.5 0 0 0 7.5-7.5v-57.715H472v57.727a7.5 7.5 0 1 0 15 0v-57.727h13.496c6.344 0 11.504-5.16 11.504-11.5v-40.84c0-6.34-5.16-11.5-11.504-11.5H487v-51.652a7.498 7.498 0 0 0 2.96-5.973zM169.064 36.492c0-11.851 9.644-21.492 21.492-21.492H321.44c11.852 0 21.493 9.64 21.493 21.492v81.832c0 11.852-9.641 21.492-21.493 21.492H190.56c-11.852 0-21.493-9.64-21.493-21.492V36.492zM497 217.035H15.621v-33.84H497zm-456.379-48.84V118.07h90.95c4.144 0 7.5-3.355 7.5-7.5a7.5 7.5 0 0 0-7.5-7.5H36.073C33.375 92.805 25.27 84.703 15 82.008V77.69h139.063v40.637c0 20.121 16.37 36.492 36.492 36.492H321.44c20.125 0 36.493-16.37 36.493-36.492v-.254h114.062v50.121zM227 359.543h-6a7.5 7.5 0 1 0 0 15h6a7.5 7.5 0 1 0 0-15zm0 0" fill="#b3da07" opacity="1" data-original="#000000" class=""></path><path d="M202.277 44.934h9.192l9.43 45.078c1.828 8.734 9.632 15.078 18.558 15.078h44.535c7.84 0 14.969-4.93 17.738-12.262l14.707-38.933a12.058 12.058 0 0 0-11.277-16.32h-62.988a7.5 7.5 0 1 0 0 15h58.73L287.7 87.526a3.98 3.98 0 0 1-3.703 2.563h-44.539a3.981 3.981 0 0 1-3.875-3.149l-9.469-45.254c-1.425-6.812-7.508-11.753-14.468-11.753h-9.364a7.497 7.497 0 0 0-7.5 7.5c0 4.14 3.356 7.5 7.496 7.5zM240.75 111.383h-2a7.497 7.497 0 0 0-7.5 7.5 7.5 7.5 0 0 0 7.5 7.5h2a7.5 7.5 0 0 0 7.5-7.5c0-4.145-3.355-7.5-7.5-7.5zM273.25 111.383h-2a7.497 7.497 0 0 0-7.5 7.5 7.5 7.5 0 0 0 7.5 7.5h2a7.5 7.5 0 0 0 7.5-7.5c0-4.145-3.355-7.5-7.5-7.5zm0 0" fill="#b3da07" opacity="1" data-original="#000000" class=""></path></g></svg>