<svg xmlns="http://www.w3.org/2000/svg" version="1.1" xmlns:xlink="http://www.w3.org/1999/xlink" width="512" height="512" x="0" y="0" viewBox="0 0 64 64" style="enable-background:new 0 0 512 512" xml:space="preserve" class=""><g><path d="m62.706 42.292-30-30a1 1 0 0 0-1.414 0l-30 30A1 1 0 0 0 1 43v4a1 1 0 0 0 1 1h2v3a1 1 0 0 0 1 1h54a1 1 0 0 0 1-1v-3h2a1 1 0 0 0 1-1v-4a1 1 0 0 0-.294-.708ZM43.586 32 35 40.586V23.414ZM31 18.586 7.586 42H4.414L31 15.414Zm-2 4.828v17.172L20.414 32Zm-13 13L21.586 42H10.414ZM24.414 42l-7-7L19 33.414 27.586 42ZM31 21.414l1-1 1 1V42h-2Zm14 12L46.586 35l-7 7h-3.172Zm3 3L53.586 42H42.414ZM56.414 42 33 18.586v-3.172L59.586 42ZM58 50H6v-2h52Zm3-4H3v-2h58Z" data-name="Artboard 01" fill="#b3da07" opacity="1" data-original="#000000" class=""></path></g></svg>