<svg xmlns="http://www.w3.org/2000/svg" version="1.1" xmlns:xlink="http://www.w3.org/1999/xlink" width="512" height="512" x="0" y="0" viewBox="0 0 511.851 511.851" style="enable-background:new 0 0 512 512" xml:space="preserve" class=""><g><path d="M149.703 227.575c0-7.629-6.207-13.836-13.837-13.836h-19.339c-7.63 0-13.837 6.207-13.837 13.836v15.824c0 7.63 6.207 13.837 13.837 13.837h19.339c7.63 0 13.837-6.207 13.837-13.837zm-15 14.661H117.69v-13.498h17.013zM84.959 227.575c0-7.629-6.207-13.836-13.837-13.836H51.784c-7.63 0-13.837 6.207-13.837 13.836v15.824c0 7.63 6.207 13.837 13.837 13.837h19.338c7.63 0 13.837-6.207 13.837-13.837zm-15 14.661H52.947v-13.498h17.012zM149.703 284.531c0-7.63-6.207-13.837-13.837-13.837h-19.339c-7.63 0-13.837 6.207-13.837 13.837v15.824c0 7.629 6.207 13.836 13.837 13.836h19.339c7.63 0 13.837-6.207 13.837-13.836zm-15 14.661H117.69v-13.498h17.013zM84.959 284.531c0-7.63-6.207-13.837-13.837-13.837H51.784c-7.63 0-13.837 6.207-13.837 13.837v15.824c0 7.629 6.207 13.836 13.837 13.836h19.338c7.63 0 13.837-6.207 13.837-13.836zm-15 14.661H52.947v-13.498h17.012zM135.867 327.651h-19.339c-7.63 0-13.837 6.207-13.837 13.837v15.824c0 7.63 6.207 13.837 13.837 13.837h19.339c7.63 0 13.837-6.207 13.837-13.837v-15.824c-.001-7.63-6.208-13.837-13.837-13.837zm-1.164 28.497H117.69V342.65h17.013zM71.122 327.651H51.784c-7.63 0-13.837 6.207-13.837 13.837v15.824c0 7.63 6.207 13.837 13.837 13.837h19.338c7.63 0 13.837-6.207 13.837-13.837v-15.824c0-7.63-6.207-13.837-13.837-13.837zm-1.163 28.497H52.947V342.65h17.012zM181.272 371.148h19.338c7.63 0 13.837-6.207 13.837-13.837v-15.824c0-7.63-6.207-13.837-13.837-13.837h-19.338c-7.63 0-13.837 6.207-13.837 13.837v15.824c0 7.63 6.207 13.837 13.837 13.837zm1.163-28.497h17.012v13.498h-17.012z" fill="#f8931f" opacity="1" data-original="#000000" class=""></path><path d="m502.912 446.539-12.028-21.031 7.743-76.748a118.21 118.21 0 0 0-41.463-102.318l-63.085-53.158-65.81-115.07c-4.172-7.295-10.936-12.529-19.044-14.737-8.109-2.207-16.593-1.127-23.887 3.046l-40.891 23.386V42.076C244.447 18.875 225.572 0 202.372 0H50.023C26.822 0 7.947 18.875 7.947 42.076V360.98c0 21.75 16.588 39.698 37.777 41.858v86.49c0 3.487 1.759 6.683 4.706 8.548a10.068 10.068 0 0 0 9.741.596l16.425-7.776 21.205 9.189c1.28.554 2.649.831 4.019.831 1.422 0 2.844-.298 4.166-.895l20.266-9.153 21.098 9.194a10.116 10.116 0 0 0 8.375-.13l19.019-9.01 17.668 7.929a10.08 10.08 0 0 0 9.64-.738 10.08 10.08 0 0 0 4.619-8.493v-86.582c21.189-2.16 37.777-20.108 37.777-41.858v-24.862l9.247 16.168a31.782 31.782 0 0 0 3.437 4.878l-3.214 16.078c-1.373 6.868.012 13.858 3.897 19.685s9.807 9.792 16.674 11.164c1.73.346 3.468.517 5.193.517 5.123 0 10.133-1.507 14.492-4.413.076-.051.148-.105.223-.156 3.717 5.695 9.624 9.956 16.804 11.391a26.05 26.05 0 0 0 5.111.506 26.23 26.23 0 0 0 12.357-3.112c9.466 27.95 26.261 53.264 48.865 72.807l5.272 4.559 12.515 21.882a7.499 7.499 0 0 0 10.234 2.787 7.5 7.5 0 0 0 2.787-10.234l-13.15-22.994a7.497 7.497 0 0 0-1.605-1.95l-6.241-5.396c-31.313-27.074-50.379-66.316-52.309-107.666l-2.611-55.917a22.614 22.614 0 0 0-2.946-10.129l-25.631-44.816c-1.886-3.297-2.375-7.131-1.376-10.796s3.364-6.722 6.661-8.607a14.114 14.114 0 0 1 10.797-1.376 14.123 14.123 0 0 1 8.607 6.66l14.322 25.042a7.5 7.5 0 0 0 13.021-7.446l-14.321-25.042c-3.875-6.775-10.156-11.636-17.687-13.687-7.531-2.05-15.41-1.046-22.185 2.829-13.986 7.999-18.857 25.886-10.858 39.872l25.631 44.815a7.553 7.553 0 0 1 .983 3.381l1.246 26.679-29.51 16.877a16.346 16.346 0 0 1-12.498 1.593 16.353 16.353 0 0 1-9.965-7.711l-58.994-103.15a7.5 7.5 0 0 0-13.021 7.447l13.714 23.979a13.75 13.75 0 0 0-7.804-2.421h-19.338c-7.63 0-13.837 6.207-13.837 13.837v15.824c0 7.629 6.207 13.836 13.837 13.836h19.338c7.63 0 13.837-6.207 13.837-13.836v-15.824c0-.321-.027-.636-.048-.952l15.048 26.312v51.089c0 14.93-12.146 27.076-27.075 27.076H50.023c-14.93 0-27.076-12.146-27.076-27.076V42.076C22.947 27.146 35.093 15 50.023 15h152.349c14.929 0 27.075 12.146 27.075 27.076v56.412l-15 8.579V68.761c0-6.658-5.417-12.075-12.075-12.075H50.023c-6.659 0-12.076 5.417-12.076 12.076v32.008a7.5 7.5 0 0 0 15 0V71.686h146.5v43.959l-33.794 19.328c-13.688 7.828-19.265 24.453-13.699 38.726H52.947v-40.967a7.5 7.5 0 0 0-15 0v43.891c0 6.659 5.417 12.076 12.076 12.076h110.112l18.698 32.693a7.501 7.501 0 0 0 13.021-7.447l-24.871-43.486c-4.507-7.88-1.762-17.958 6.118-22.464l119.685-68.45a16.346 16.346 0 0 1 12.498-1.593 16.353 16.353 0 0 1 9.965 7.711l99.732 174.383a16.358 16.358 0 0 1 1.594 12.499 16.355 16.355 0 0 1-7.711 9.964l-28.171 16.111-8.946-15.642a7.5 7.5 0 0 0-13.021 7.447l20.233 35.377a7.499 7.499 0 0 0 10.234 2.787 7.5 7.5 0 0 0 2.787-10.234l-3.84-6.714 28.171-16.111c7.295-4.172 12.529-10.936 14.737-19.044s1.126-16.592-3.046-23.887l-12.268-21.45 31.764 26.766a103.22 103.22 0 0 1 36.206 89.341l-7.984 79.139a7.5 7.5 0 0 0 .952 4.477l13.221 23.117a7.499 7.499 0 0 0 10.234 2.787 7.504 7.504 0 0 0 2.785-10.237zM320.053 363.32a165.447 165.447 0 0 0 4.257 30.268c-2.612 2.646-6.426 3.881-10.169 3.134-6.066-1.212-10.015-7.134-8.803-13.2l5.535-27.691 8.6-4.919zm-38.997 4.824c4.32 0 8.592-.913 12.595-2.68l-3.022 15.117a11.147 11.147 0 0 1-4.777 7.135 11.137 11.137 0 0 1-8.423 1.667c-2.938-.587-5.472-2.284-7.135-4.777s-2.255-5.484-1.667-8.423l1.966-9.835c.705.246 1.418.477 2.146.676a31.617 31.617 0 0 0 8.317 1.12zm-81.609-68.952h-17.012v-13.498h17.012zm-7.777 182.685-12.842-5.763a10.11 10.11 0 0 0-8.472.088l-19.047 9.023-21.051-9.174a10.133 10.133 0 0 0-8.207.055l-20.271 9.156-21.249-9.208a10.111 10.111 0 0 0-8.354.138l-11.454 5.423v-78.559H191.67z" fill="#f8931f" opacity="1" data-original="#000000" class=""></path><path d="M295.807 135.622a7.5 7.5 0 0 0-5.266-9.207c-14.768-4.021-30.219-2.052-43.506 5.547-13.286 7.599-22.818 19.917-26.84 34.686a7.5 7.5 0 0 0 5.266 9.207c.66.18 1.323.266 1.975.266a7.504 7.504 0 0 0 7.232-5.531c2.969-10.903 10.006-19.997 19.814-25.606 9.809-5.61 21.214-7.064 32.118-4.095a7.503 7.503 0 0 0 9.207-5.267z" fill="#f8931f" opacity="1" data-original="#000000" class=""></path><path d="M278.715 169.842a7.505 7.505 0 0 0 9.208-5.265 7.5 7.5 0 0 0-5.265-9.208c-7.04-1.917-14.402-.983-20.727 2.633-6.324 3.616-10.862 9.486-12.78 16.529a7.5 7.5 0 0 0 5.266 9.207c.66.18 1.323.266 1.975.266a7.504 7.504 0 0 0 7.232-5.531 12.22 12.22 0 0 1 5.754-7.45 12.22 12.22 0 0 1 9.337-1.181zM275.786 197.338a7.499 7.499 0 0 0 10.234 2.787 7.5 7.5 0 0 0 2.787-10.234l-2.491-4.356a7.5 7.5 0 1 0-13.021 7.447z" fill="#f8931f" opacity="1" data-original="#000000" class=""></path></g></svg>